<svg width="388" height="51" viewBox="0 0 388 51" fill="none" xmlns="http://www.w3.org/2000/svg">
<path d="M3.264 43V9.112H10.8V43H3.264ZM24.24 43V9.112H31.824V43H24.24ZM7.776 28.84V22.312H26.736V28.84H7.776ZM48.8865 43.528C46.4865 43.528 44.3105 43 42.3585 41.944C40.4385 40.856 38.9185 39.384 37.7985 37.528C36.6785 35.672 36.1185 33.592 36.1185 31.288C36.1185 28.984 36.6785 26.92 37.7985 25.096C38.9185 23.272 40.4385 21.832 42.3585 20.776C44.2785 19.688 46.4545 19.144 48.8865 19.144C51.3185 19.144 53.4945 19.672 55.4145 20.728C57.3345 21.784 58.8545 23.24 59.9745 25.096C61.0945 26.92 61.6545 28.984 61.6545 31.288C61.6545 33.592 61.0945 35.672 59.9745 37.528C58.8545 39.384 57.3345 40.856 55.4145 41.944C53.4945 43 51.3185 43.528 48.8865 43.528ZM48.8865 36.856C49.9425 36.856 50.8705 36.632 51.6705 36.184C52.4705 35.704 53.0785 35.048 53.4945 34.216C53.9425 33.352 54.1665 32.376 54.1665 31.288C54.1665 30.2 53.9425 29.256 53.4945 28.456C53.0465 27.624 52.4225 26.984 51.6225 26.536C50.8545 26.056 49.9425 25.816 48.8865 25.816C47.8625 25.816 46.9505 26.056 46.1505 26.536C45.3505 26.984 44.7265 27.624 44.2785 28.456C43.8305 29.288 43.6065 30.248 43.6065 31.336C43.6065 32.392 43.8305 33.352 44.2785 34.216C44.7265 35.048 45.3505 35.704 46.1505 36.184C46.9505 36.632 47.8625 36.856 48.8865 36.856ZM70.554 43L62.49 19.672H69.69L74.682 36.616L72.57 36.664L78.09 19.672H84.042L89.61 36.664L87.45 36.616L92.49 19.672H99.69L91.626 43H85.626L80.202 26.872H82.026L76.506 43H70.554ZM118.102 43V37.144H126.07C127.542 37.144 128.694 36.712 129.526 35.848C130.358 34.984 130.774 33.928 130.774 32.68C130.774 31.816 130.582 31.048 130.198 30.376C129.814 29.704 129.27 29.176 128.566 28.792C127.894 28.408 127.062 28.216 126.07 28.216H118.102V22.504H125.446C126.694 22.504 127.702 22.2 128.47 21.592C129.238 20.952 129.622 19.992 129.622 18.712C129.622 17.464 129.238 16.536 128.47 15.928C127.702 15.288 126.694 14.968 125.446 14.968H118.102V9.112H126.886C129.062 9.112 130.902 9.512 132.406 10.312C133.942 11.112 135.11 12.184 135.91 13.528C136.71 14.872 137.11 16.36 137.11 17.992C137.11 20.072 136.438 21.832 135.094 23.272C133.75 24.712 131.766 25.704 129.142 26.248L129.334 23.704C132.182 24.248 134.374 25.352 135.91 27.016C137.478 28.68 138.262 30.728 138.262 33.16C138.262 35.016 137.798 36.696 136.87 38.2C135.974 39.672 134.662 40.84 132.934 41.704C131.238 42.568 129.19 43 126.79 43H118.102ZM112.342 43V9.112H119.782V43H112.342ZM152.788 43.528C150.644 43.528 148.74 43.096 147.076 42.232C145.444 41.336 144.164 40.12 143.236 38.584C142.308 37.016 141.844 35.224 141.844 33.208V19.672H149.188V33.112C149.188 33.912 149.316 34.6 149.572 35.176C149.86 35.752 150.276 36.2 150.82 36.52C151.364 36.84 152.02 37 152.788 37C153.876 37 154.74 36.664 155.38 35.992C156.02 35.288 156.34 34.328 156.34 33.112V19.672H163.684V33.16C163.684 35.208 163.22 37.016 162.292 38.584C161.364 40.12 160.084 41.336 158.452 42.232C156.82 43.096 154.932 43.528 152.788 43.528ZM178.231 43.48C176.023 43.48 174.055 42.952 172.327 41.896C170.631 40.84 169.287 39.4 168.295 37.576C167.335 35.752 166.855 33.672 166.855 31.336C166.855 29 167.335 26.92 168.295 25.096C169.287 23.272 170.631 21.832 172.327 20.776C174.055 19.72 176.023 19.192 178.231 19.192C179.831 19.192 181.271 19.496 182.551 20.104C183.863 20.712 184.935 21.56 185.767 22.648C186.631 23.704 187.111 24.92 187.207 26.296V36.136C187.111 37.512 186.647 38.76 185.815 39.88C184.983 40.968 183.911 41.848 182.599 42.52C181.287 43.16 179.831 43.48 178.231 43.48ZM179.527 36.856C180.583 36.856 181.495 36.632 182.263 36.184C183.031 35.704 183.639 35.048 184.087 34.216C184.535 33.384 184.759 32.424 184.759 31.336C184.759 30.248 184.535 29.304 184.087 28.504C183.671 27.672 183.063 27.016 182.263 26.536C181.495 26.056 180.599 25.816 179.575 25.816C178.551 25.816 177.639 26.056 176.839 26.536C176.071 27.016 175.447 27.672 174.967 28.504C174.519 29.336 174.295 30.28 174.295 31.336C174.295 32.392 174.519 33.336 174.967 34.168C175.415 35 176.039 35.656 176.839 36.136C177.639 36.616 178.535 36.856 179.527 36.856ZM191.671 43H184.471V36.712L185.575 31.048L184.327 25.384V8.152H191.671V43ZM205.338 43.576C203.962 43.576 202.602 43.4 201.258 43.048C199.946 42.696 198.714 42.2 197.562 41.56C196.442 40.888 195.482 40.12 194.682 39.256L198.858 35.032C199.626 35.864 200.538 36.52 201.594 37C202.65 37.448 203.802 37.672 205.05 37.672C205.914 37.672 206.57 37.544 207.018 37.288C207.498 37.032 207.738 36.68 207.738 36.232C207.738 35.656 207.45 35.224 206.874 34.936C206.33 34.616 205.626 34.344 204.762 34.12C203.898 33.864 202.986 33.592 202.026 33.304C201.066 33.016 200.154 32.616 199.29 32.104C198.426 31.592 197.722 30.888 197.178 29.992C196.634 29.064 196.362 27.896 196.362 26.488C196.362 24.984 196.746 23.688 197.514 22.6C198.282 21.48 199.37 20.6 200.778 19.96C202.186 19.32 203.834 19 205.722 19C207.706 19 209.53 19.352 211.194 20.056C212.89 20.728 214.266 21.736 215.322 23.08L211.146 27.304C210.41 26.44 209.578 25.832 208.65 25.48C207.754 25.128 206.874 24.952 206.01 24.952C205.178 24.952 204.554 25.08 204.138 25.336C203.722 25.56 203.514 25.896 203.514 26.344C203.514 26.824 203.786 27.208 204.33 27.496C204.874 27.784 205.578 28.04 206.442 28.264C207.306 28.488 208.218 28.76 209.178 29.08C210.138 29.4 211.05 29.832 211.914 30.376C212.778 30.92 213.482 31.656 214.026 32.584C214.57 33.48 214.842 34.664 214.842 36.136C214.842 38.408 213.978 40.216 212.25 41.56C210.554 42.904 208.25 43.576 205.338 43.576ZM227.322 43.576C225.946 43.576 224.586 43.4 223.242 43.048C221.93 42.696 220.698 42.2 219.546 41.56C218.426 40.888 217.466 40.12 216.666 39.256L220.842 35.032C221.61 35.864 222.522 36.52 223.578 37C224.634 37.448 225.786 37.672 227.034 37.672C227.898 37.672 228.554 37.544 229.002 37.288C229.482 37.032 229.722 36.68 229.722 36.232C229.722 35.656 229.434 35.224 228.858 34.936C228.314 34.616 227.61 34.344 226.746 34.12C225.882 33.864 224.97 33.592 224.01 33.304C223.05 33.016 222.138 32.616 221.274 32.104C220.41 31.592 219.706 30.888 219.162 29.992C218.618 29.064 218.346 27.896 218.346 26.488C218.346 24.984 218.73 23.688 219.498 22.6C220.266 21.48 221.354 20.6 222.762 19.96C224.17 19.32 225.818 19 227.706 19C229.69 19 231.514 19.352 233.178 20.056C234.874 20.728 236.25 21.736 237.306 23.08L233.13 27.304C232.394 26.44 231.562 25.832 230.634 25.48C229.738 25.128 228.858 24.952 227.994 24.952C227.162 24.952 226.538 25.08 226.122 25.336C225.706 25.56 225.498 25.896 225.498 26.344C225.498 26.824 225.77 27.208 226.314 27.496C226.858 27.784 227.562 28.04 228.426 28.264C229.29 28.488 230.202 28.76 231.162 29.08C232.122 29.4 233.034 29.832 233.898 30.376C234.762 30.92 235.466 31.656 236.01 32.584C236.554 33.48 236.826 34.664 236.826 36.136C236.826 38.408 235.962 40.216 234.234 41.56C232.538 42.904 230.234 43.576 227.322 43.576ZM259.071 43L248.175 9.112H255.663L263.631 35.176H260.703L268.479 9.112H274.383L282.159 35.176H279.279L287.199 9.112H294.639L283.743 43H277.839L270.015 16.936H272.799L264.975 43H259.071ZM306.277 43.528C303.877 43.528 301.701 43 299.749 41.944C297.829 40.856 296.309 39.384 295.189 37.528C294.069 35.672 293.509 33.592 293.509 31.288C293.509 28.984 294.069 26.92 295.189 25.096C296.309 23.272 297.829 21.832 299.749 20.776C301.669 19.688 303.845 19.144 306.277 19.144C308.709 19.144 310.885 19.672 312.805 20.728C314.725 21.784 316.245 23.24 317.365 25.096C318.485 26.92 319.045 28.984 319.045 31.288C319.045 33.592 318.485 35.672 317.365 37.528C316.245 39.384 314.725 40.856 312.805 41.944C310.885 43 308.709 43.528 306.277 43.528ZM306.277 36.856C307.333 36.856 308.261 36.632 309.061 36.184C309.861 35.704 310.469 35.048 310.885 34.216C311.333 33.352 311.557 32.376 311.557 31.288C311.557 30.2 311.333 29.256 310.885 28.456C310.437 27.624 309.813 26.984 309.013 26.536C308.245 26.056 307.333 25.816 306.277 25.816C305.253 25.816 304.341 26.056 303.541 26.536C302.741 26.984 302.117 27.624 301.669 28.456C301.221 29.288 300.997 30.248 300.997 31.336C300.997 32.392 301.221 33.352 301.669 34.216C302.117 35.048 302.741 35.704 303.541 36.184C304.341 36.632 305.253 36.856 306.277 36.856ZM322.701 43V19.672H330.045V43H322.701ZM330.045 30.184L326.973 27.784C327.581 25.064 328.605 22.952 330.045 21.448C331.485 19.944 333.485 19.192 336.045 19.192C337.165 19.192 338.141 19.368 338.973 19.72C339.837 20.04 340.589 20.552 341.229 21.256L336.861 26.776C336.541 26.424 336.141 26.152 335.661 25.96C335.181 25.768 334.637 25.672 334.029 25.672C332.813 25.672 331.837 26.056 331.101 26.824C330.397 27.56 330.045 28.68 330.045 30.184ZM358.114 43L349.954 30.904L358.066 19.672H366.274L356.482 32.296L356.722 29.272L366.754 43H358.114ZM343.186 43V8.152H350.53V43H343.186ZM376.526 43.576C375.15 43.576 373.79 43.4 372.446 43.048C371.134 42.696 369.902 42.2 368.75 41.56C367.63 40.888 366.67 40.12 365.87 39.256L370.046 35.032C370.814 35.864 371.726 36.52 372.782 37C373.838 37.448 374.99 37.672 376.238 37.672C377.102 37.672 377.758 37.544 378.206 37.288C378.686 37.032 378.926 36.68 378.926 36.232C378.926 35.656 378.638 35.224 378.062 34.936C377.518 34.616 376.814 34.344 375.95 34.12C375.086 33.864 374.174 33.592 373.214 33.304C372.253 33.016 371.342 32.616 370.478 32.104C369.614 31.592 368.91 30.888 368.366 29.992C367.822 29.064 367.55 27.896 367.55 26.488C367.55 24.984 367.934 23.688 368.702 22.6C369.47 21.48 370.558 20.6 371.966 19.96C373.374 19.32 375.022 19 376.91 19C378.894 19 380.718 19.352 382.382 20.056C384.078 20.728 385.454 21.736 386.51 23.08L382.334 27.304C381.598 26.44 380.766 25.832 379.838 25.48C378.942 25.128 378.062 24.952 377.198 24.952C376.366 24.952 375.742 25.08 375.326 25.336C374.91 25.56 374.702 25.896 374.702 26.344C374.702 26.824 374.974 27.208 375.518 27.496C376.062 27.784 376.766 28.04 377.63 28.264C378.494 28.488 379.406 28.76 380.366 29.08C381.326 29.4 382.238 29.832 383.102 30.376C383.966 30.92 384.67 31.656 385.214 32.584C385.758 33.48 386.03 34.664 386.03 36.136C386.03 38.408 385.166 40.216 383.438 41.56C381.742 42.904 379.438 43.576 376.526 43.576Z" fill="#FFAA4C"/>
</svg>
