<svg width="1034" height="136" viewBox="0 0 1034 136" fill="none" xmlns="http://www.w3.org/2000/svg">
<path d="M8.704 115V24.632H28.8V115H8.704ZM64.64 115V24.632H84.864V115H64.64ZM20.736 77.24V59.832H71.296V77.24H20.736ZM130.364 116.408C123.964 116.408 118.161 115 112.956 112.184C107.836 109.283 103.783 105.357 100.796 100.408C97.8093 95.4587 96.316 89.912 96.316 83.768C96.316 77.624 97.8093 72.12 100.796 67.256C103.783 62.392 107.836 58.552 112.956 55.736C118.076 52.8347 123.879 51.384 130.364 51.384C136.849 51.384 142.652 52.792 147.772 55.608C152.892 58.424 156.945 62.3067 159.932 67.256C162.919 72.12 164.412 77.624 164.412 83.768C164.412 89.912 162.919 95.4587 159.932 100.408C156.945 105.357 152.892 109.283 147.772 112.184C142.652 115 136.849 116.408 130.364 116.408ZM130.364 98.616C133.18 98.616 135.655 98.0187 137.788 96.824C139.921 95.544 141.543 93.7947 142.652 91.576C143.847 89.272 144.444 86.6693 144.444 83.768C144.444 80.8667 143.847 78.3493 142.652 76.216C141.457 73.9973 139.793 72.2907 137.66 71.096C135.612 69.816 133.18 69.176 130.364 69.176C127.633 69.176 125.201 69.816 123.068 71.096C120.935 72.2907 119.271 73.9973 118.076 76.216C116.881 78.4347 116.284 80.9947 116.284 83.896C116.284 86.712 116.881 89.272 118.076 91.576C119.271 93.7947 120.935 95.544 123.068 96.824C125.201 98.0187 127.633 98.616 130.364 98.616ZM188.144 115L166.64 52.792H185.84L199.152 97.976L193.52 98.104L208.24 52.792H224.112L238.96 98.104L233.2 97.976L246.64 52.792H265.84L244.336 115H228.336L213.872 71.992H218.736L204.016 115H188.144ZM314.939 115V99.384H336.187C340.112 99.384 343.184 98.232 345.403 95.928C347.622 93.624 348.731 90.808 348.731 87.48C348.731 85.176 348.219 83.128 347.195 81.336C346.171 79.544 344.72 78.136 342.843 77.112C341.051 76.088 338.832 75.576 336.187 75.576H314.939V60.344H334.523C337.851 60.344 340.539 59.5333 342.587 57.912C344.635 56.2053 345.659 53.6453 345.659 50.232C345.659 46.904 344.635 44.4293 342.587 42.808C340.539 41.1013 337.851 40.248 334.523 40.248H314.939V24.632H338.363C344.166 24.632 349.072 25.6987 353.083 27.832C357.179 29.9653 360.294 32.824 362.427 36.408C364.56 39.992 365.627 43.96 365.627 48.312C365.627 53.8587 363.835 58.552 360.251 62.392C356.667 66.232 351.376 68.8773 344.379 70.328L344.891 63.544C352.486 64.9947 358.331 67.9387 362.427 72.376C366.608 76.8133 368.699 82.2747 368.699 88.76C368.699 93.7093 367.462 98.1893 364.987 102.2C362.598 106.125 359.099 109.24 354.491 111.544C349.968 113.848 344.507 115 338.107 115H314.939ZM299.579 115V24.632H319.419V115H299.579ZM407.435 116.408C401.718 116.408 396.64 115.256 392.203 112.952C387.851 110.563 384.438 107.32 381.963 103.224C379.488 99.0427 378.251 94.264 378.251 88.888V52.792H397.835V88.632C397.835 90.7653 398.176 92.6 398.859 94.136C399.627 95.672 400.736 96.8667 402.187 97.72C403.638 98.5733 405.387 99 407.435 99C410.336 99 412.64 98.104 414.347 96.312C416.054 94.4347 416.907 91.8747 416.907 88.632V52.792H436.491V88.76C436.491 94.2213 435.254 99.0427 432.779 103.224C430.304 107.32 426.891 110.563 422.539 112.952C418.187 115.256 413.152 116.408 407.435 116.408ZM475.283 116.28C469.395 116.28 464.147 114.872 459.539 112.056C455.016 109.24 451.432 105.4 448.787 100.536C446.227 95.672 444.947 90.1253 444.947 83.896C444.947 77.6667 446.227 72.12 448.787 67.256C451.432 62.392 455.016 58.552 459.539 55.736C464.147 52.92 469.395 51.512 475.283 51.512C479.55 51.512 483.39 52.3227 486.803 53.944C490.302 55.5653 493.16 57.8267 495.379 60.728C497.683 63.544 498.963 66.7867 499.219 70.456V96.696C498.963 100.365 497.726 103.693 495.507 106.68C493.288 109.581 490.43 111.928 486.931 113.72C483.432 115.427 479.55 116.28 475.283 116.28ZM478.739 98.616C481.555 98.616 483.987 98.0187 486.035 96.824C488.083 95.544 489.704 93.7947 490.899 91.576C492.094 89.3573 492.691 86.7973 492.691 83.896C492.691 80.9947 492.094 78.4773 490.899 76.344C489.79 74.1253 488.168 72.376 486.035 71.096C483.987 69.816 481.598 69.176 478.867 69.176C476.136 69.176 473.704 69.816 471.571 71.096C469.523 72.376 467.859 74.1253 466.579 76.344C465.384 78.5627 464.787 81.08 464.787 83.896C464.787 86.712 465.384 89.2293 466.579 91.448C467.774 93.6667 469.438 95.416 471.571 96.696C473.704 97.976 476.094 98.616 478.739 98.616ZM511.123 115H491.923V98.232L494.867 83.128L491.539 68.024V22.072H511.123V115ZM547.568 116.536C543.899 116.536 540.272 116.067 536.688 115.128C533.189 114.189 529.904 112.867 526.832 111.16C523.845 109.368 521.285 107.32 519.152 105.016L530.288 93.752C532.336 95.9707 534.768 97.72 537.584 99C540.4 100.195 543.472 100.792 546.8 100.792C549.104 100.792 550.853 100.451 552.048 99.768C553.328 99.0853 553.968 98.1467 553.968 96.952C553.968 95.416 553.2 94.264 551.664 93.496C550.213 92.6427 548.336 91.9173 546.032 91.32C543.728 90.6373 541.296 89.912 538.736 89.144C536.176 88.376 533.744 87.3093 531.44 85.944C529.136 84.5787 527.259 82.7013 525.808 80.312C524.357 77.8373 523.632 74.7227 523.632 70.968C523.632 66.9573 524.656 63.5013 526.704 60.6C528.752 57.6133 531.653 55.2667 535.408 53.56C539.163 51.8533 543.557 51 548.592 51C553.883 51 558.747 51.9387 563.184 53.816C567.707 55.608 571.376 58.296 574.192 61.88L563.056 73.144C561.093 70.84 558.875 69.2187 556.4 68.28C554.011 67.3413 551.664 66.872 549.36 66.872C547.141 66.872 545.477 67.2133 544.368 67.896C543.259 68.4933 542.704 69.3893 542.704 70.584C542.704 71.864 543.429 72.888 544.88 73.656C546.331 74.424 548.208 75.1067 550.512 75.704C552.816 76.3013 555.248 77.0267 557.808 77.88C560.368 78.7333 562.8 79.8853 565.104 81.336C567.408 82.7867 569.285 84.7493 570.736 87.224C572.187 89.6133 572.912 92.7707 572.912 96.696C572.912 102.755 570.608 107.576 566 111.16C561.477 114.744 555.333 116.536 547.568 116.536ZM606.193 116.536C602.524 116.536 598.897 116.067 595.313 115.128C591.814 114.189 588.529 112.867 585.457 111.16C582.47 109.368 579.91 107.32 577.777 105.016L588.913 93.752C590.961 95.9707 593.393 97.72 596.209 99C599.025 100.195 602.097 100.792 605.425 100.792C607.729 100.792 609.478 100.451 610.673 99.768C611.953 99.0853 612.593 98.1467 612.593 96.952C612.593 95.416 611.825 94.264 610.289 93.496C608.838 92.6427 606.961 91.9173 604.657 91.32C602.353 90.6373 599.921 89.912 597.361 89.144C594.801 88.376 592.369 87.3093 590.065 85.944C587.761 84.5787 585.884 82.7013 584.433 80.312C582.982 77.8373 582.257 74.7227 582.257 70.968C582.257 66.9573 583.281 63.5013 585.329 60.6C587.377 57.6133 590.278 55.2667 594.033 53.56C597.788 51.8533 602.182 51 607.217 51C612.508 51 617.372 51.9387 621.809 53.816C626.332 55.608 630.001 58.296 632.817 61.88L621.681 73.144C619.718 70.84 617.5 69.2187 615.025 68.28C612.636 67.3413 610.289 66.872 607.985 66.872C605.766 66.872 604.102 67.2133 602.993 67.896C601.884 68.4933 601.329 69.3893 601.329 70.584C601.329 71.864 602.054 72.888 603.505 73.656C604.956 74.424 606.833 75.1067 609.137 75.704C611.441 76.3013 613.873 77.0267 616.433 77.88C618.993 78.7333 621.425 79.8853 623.729 81.336C626.033 82.7867 627.91 84.7493 629.361 87.224C630.812 89.6133 631.537 92.7707 631.537 96.696C631.537 102.755 629.233 107.576 624.625 111.16C620.102 114.744 613.958 116.536 606.193 116.536ZM690.857 115L661.801 24.632H681.769L703.017 94.136H695.209L715.945 24.632H731.689L752.425 94.136H744.745L765.865 24.632H785.705L756.649 115H740.905L720.041 45.496H727.465L706.601 115H690.857ZM816.739 116.408C810.339 116.408 804.536 115 799.331 112.184C794.211 109.283 790.158 105.357 787.171 100.408C784.184 95.4587 782.691 89.912 782.691 83.768C782.691 77.624 784.184 72.12 787.171 67.256C790.158 62.392 794.211 58.552 799.331 55.736C804.451 52.8347 810.254 51.384 816.739 51.384C823.224 51.384 829.027 52.792 834.147 55.608C839.267 58.424 843.32 62.3067 846.307 67.256C849.294 72.12 850.787 77.624 850.787 83.768C850.787 89.912 849.294 95.4587 846.307 100.408C843.32 105.357 839.267 109.283 834.147 112.184C829.027 115 823.224 116.408 816.739 116.408ZM816.739 98.616C819.555 98.616 822.03 98.0187 824.163 96.824C826.296 95.544 827.918 93.7947 829.027 91.576C830.222 89.272 830.819 86.6693 830.819 83.768C830.819 80.8667 830.222 78.3493 829.027 76.216C827.832 73.9973 826.168 72.2907 824.035 71.096C821.987 69.816 819.555 69.176 816.739 69.176C814.008 69.176 811.576 69.816 809.443 71.096C807.31 72.2907 805.646 73.9973 804.451 76.216C803.256 78.4347 802.659 80.9947 802.659 83.896C802.659 86.712 803.256 89.272 804.451 91.576C805.646 93.7947 807.31 95.544 809.443 96.824C811.576 98.0187 814.008 98.616 816.739 98.616ZM860.537 115V52.792H880.121V115H860.537ZM880.121 80.824L871.929 74.424C873.55 67.1707 876.281 61.5387 880.121 57.528C883.961 53.5173 889.294 51.512 896.121 51.512C899.108 51.512 901.71 51.9813 903.929 52.92C906.233 53.7733 908.238 55.1387 909.945 57.016L898.297 71.736C897.444 70.7973 896.377 70.072 895.097 69.56C893.817 69.048 892.366 68.792 890.745 68.792C887.502 68.792 884.9 69.816 882.937 71.864C881.06 73.8267 880.121 76.8133 880.121 80.824ZM954.97 115L933.21 82.744L954.842 52.792H976.73L950.618 86.456L951.258 78.392L978.01 115H954.97ZM915.162 115V22.072H934.746V115H915.162ZM1004.07 116.536C1000.4 116.536 996.772 116.067 993.188 115.128C989.689 114.189 986.404 112.867 983.332 111.16C980.345 109.368 977.785 107.32 975.652 105.016L986.788 93.752C988.836 95.9707 991.268 97.72 994.084 99C996.9 100.195 999.972 100.792 1003.3 100.792C1005.6 100.792 1007.35 100.451 1008.55 99.768C1009.83 99.0853 1010.47 98.1467 1010.47 96.952C1010.47 95.416 1009.7 94.264 1008.16 93.496C1006.71 92.6427 1004.84 91.9173 1002.53 91.32C1000.23 90.6373 997.796 89.912 995.236 89.144C992.676 88.376 990.244 87.3093 987.94 85.944C985.636 84.5787 983.759 82.7013 982.308 80.312C980.857 77.8373 980.132 74.7227 980.132 70.968C980.132 66.9573 981.156 63.5013 983.204 60.6C985.252 57.6133 988.153 55.2667 991.908 53.56C995.663 51.8533 1000.06 51 1005.09 51C1010.38 51 1015.25 51.9387 1019.68 53.816C1024.21 55.608 1027.88 58.296 1030.69 61.88L1019.56 73.144C1017.59 70.84 1015.37 69.2187 1012.9 68.28C1010.51 67.3413 1008.16 66.872 1005.86 66.872C1003.64 66.872 1001.98 67.2133 1000.87 67.896C999.759 68.4933 999.204 69.3893 999.204 70.584C999.204 71.864 999.929 72.888 1001.38 73.656C1002.83 74.424 1004.71 75.1067 1007.01 75.704C1009.32 76.3013 1011.75 77.0267 1014.31 77.88C1016.87 78.7333 1019.3 79.8853 1021.6 81.336C1023.91 82.7867 1025.79 84.7493 1027.24 87.224C1028.69 89.6133 1029.41 92.7707 1029.41 96.696C1029.41 102.755 1027.11 107.576 1022.5 111.16C1017.98 114.744 1011.83 116.536 1004.07 116.536Z" fill="#2FDBBC"/>
</svg>
