<svg width="388" height="51" viewBox="0 0 388 51" fill="none" xmlns="http://www.w3.org/2000/svg">
<mask id="path-1-outside-1_1_8903" maskUnits="userSpaceOnUse" x="2" y="7" width="386" height="38" fill="black">
<rect fill="white" x="2" y="7" width="386" height="38"/>
<path d="M3.264 43V9.112H10.8V43H3.264ZM24.24 43V9.112H31.824V43H24.24ZM7.776 28.84V22.312H26.736V28.84H7.776ZM48.8865 43.528C46.4865 43.528 44.3105 43 42.3585 41.944C40.4385 40.856 38.9185 39.384 37.7985 37.528C36.6785 35.672 36.1185 33.592 36.1185 31.288C36.1185 28.984 36.6785 26.92 37.7985 25.096C38.9185 23.272 40.4385 21.832 42.3585 20.776C44.2785 19.688 46.4545 19.144 48.8865 19.144C51.3185 19.144 53.4945 19.672 55.4145 20.728C57.3345 21.784 58.8545 23.24 59.9745 25.096C61.0945 26.92 61.6545 28.984 61.6545 31.288C61.6545 33.592 61.0945 35.672 59.9745 37.528C58.8545 39.384 57.3345 40.856 55.4145 41.944C53.4945 43 51.3185 43.528 48.8865 43.528ZM48.8865 36.856C49.9425 36.856 50.8705 36.632 51.6705 36.184C52.4705 35.704 53.0785 35.048 53.4945 34.216C53.9425 33.352 54.1665 32.376 54.1665 31.288C54.1665 30.2 53.9425 29.256 53.4945 28.456C53.0465 27.624 52.4225 26.984 51.6225 26.536C50.8545 26.056 49.9425 25.816 48.8865 25.816C47.8625 25.816 46.9505 26.056 46.1505 26.536C45.3505 26.984 44.7265 27.624 44.2785 28.456C43.8305 29.288 43.6065 30.248 43.6065 31.336C43.6065 32.392 43.8305 33.352 44.2785 34.216C44.7265 35.048 45.3505 35.704 46.1505 36.184C46.9505 36.632 47.8625 36.856 48.8865 36.856ZM70.554 43L62.49 19.672H69.69L74.682 36.616L72.57 36.664L78.09 19.672H84.042L89.61 36.664L87.45 36.616L92.49 19.672H99.69L91.626 43H85.626L80.202 26.872H82.026L76.506 43H70.554ZM118.102 43V37.144H126.07C127.542 37.144 128.694 36.712 129.526 35.848C130.358 34.984 130.774 33.928 130.774 32.68C130.774 31.816 130.582 31.048 130.198 30.376C129.814 29.704 129.27 29.176 128.566 28.792C127.894 28.408 127.062 28.216 126.07 28.216H118.102V22.504H125.446C126.694 22.504 127.702 22.2 128.47 21.592C129.238 20.952 129.622 19.992 129.622 18.712C129.622 17.464 129.238 16.536 128.47 15.928C127.702 15.288 126.694 14.968 125.446 14.968H118.102V9.112H126.886C129.062 9.112 130.902 9.512 132.406 10.312C133.942 11.112 135.11 12.184 135.91 13.528C136.71 14.872 137.11 16.36 137.11 17.992C137.11 20.072 136.438 21.832 135.094 23.272C133.75 24.712 131.766 25.704 129.142 26.248L129.334 23.704C132.182 24.248 134.374 25.352 135.91 27.016C137.478 28.68 138.262 30.728 138.262 33.16C138.262 35.016 137.798 36.696 136.87 38.2C135.974 39.672 134.662 40.84 132.934 41.704C131.238 42.568 129.19 43 126.79 43H118.102ZM112.342 43V9.112H119.782V43H112.342ZM152.788 43.528C150.644 43.528 148.74 43.096 147.076 42.232C145.444 41.336 144.164 40.12 143.236 38.584C142.308 37.016 141.844 35.224 141.844 33.208V19.672H149.188V33.112C149.188 33.912 149.316 34.6 149.572 35.176C149.86 35.752 150.276 36.2 150.82 36.52C151.364 36.84 152.02 37 152.788 37C153.876 37 154.74 36.664 155.38 35.992C156.02 35.288 156.34 34.328 156.34 33.112V19.672H163.684V33.16C163.684 35.208 163.22 37.016 162.292 38.584C161.364 40.12 160.084 41.336 158.452 42.232C156.82 43.096 154.932 43.528 152.788 43.528ZM178.231 43.48C176.023 43.48 174.055 42.952 172.327 41.896C170.631 40.84 169.287 39.4 168.295 37.576C167.335 35.752 166.855 33.672 166.855 31.336C166.855 29 167.335 26.92 168.295 25.096C169.287 23.272 170.631 21.832 172.327 20.776C174.055 19.72 176.023 19.192 178.231 19.192C179.831 19.192 181.271 19.496 182.551 20.104C183.863 20.712 184.935 21.56 185.767 22.648C186.631 23.704 187.111 24.92 187.207 26.296V36.136C187.111 37.512 186.647 38.76 185.815 39.88C184.983 40.968 183.911 41.848 182.599 42.52C181.287 43.16 179.831 43.48 178.231 43.48ZM179.527 36.856C180.583 36.856 181.495 36.632 182.263 36.184C183.031 35.704 183.639 35.048 184.087 34.216C184.535 33.384 184.759 32.424 184.759 31.336C184.759 30.248 184.535 29.304 184.087 28.504C183.671 27.672 183.063 27.016 182.263 26.536C181.495 26.056 180.599 25.816 179.575 25.816C178.551 25.816 177.639 26.056 176.839 26.536C176.071 27.016 175.447 27.672 174.967 28.504C174.519 29.336 174.295 30.28 174.295 31.336C174.295 32.392 174.519 33.336 174.967 34.168C175.415 35 176.039 35.656 176.839 36.136C177.639 36.616 178.535 36.856 179.527 36.856ZM191.671 43H184.471V36.712L185.575 31.048L184.327 25.384V8.152H191.671V43ZM205.338 43.576C203.962 43.576 202.602 43.4 201.258 43.048C199.946 42.696 198.714 42.2 197.562 41.56C196.442 40.888 195.482 40.12 194.682 39.256L198.858 35.032C199.626 35.864 200.538 36.52 201.594 37C202.65 37.448 203.802 37.672 205.05 37.672C205.914 37.672 206.57 37.544 207.018 37.288C207.498 37.032 207.738 36.68 207.738 36.232C207.738 35.656 207.45 35.224 206.874 34.936C206.33 34.616 205.626 34.344 204.762 34.12C203.898 33.864 202.986 33.592 202.026 33.304C201.066 33.016 200.154 32.616 199.29 32.104C198.426 31.592 197.722 30.888 197.178 29.992C196.634 29.064 196.362 27.896 196.362 26.488C196.362 24.984 196.746 23.688 197.514 22.6C198.282 21.48 199.37 20.6 200.778 19.96C202.186 19.32 203.834 19 205.722 19C207.706 19 209.53 19.352 211.194 20.056C212.89 20.728 214.266 21.736 215.322 23.08L211.146 27.304C210.41 26.44 209.578 25.832 208.65 25.48C207.754 25.128 206.874 24.952 206.01 24.952C205.178 24.952 204.554 25.08 204.138 25.336C203.722 25.56 203.514 25.896 203.514 26.344C203.514 26.824 203.786 27.208 204.33 27.496C204.874 27.784 205.578 28.04 206.442 28.264C207.306 28.488 208.218 28.76 209.178 29.08C210.138 29.4 211.05 29.832 211.914 30.376C212.778 30.92 213.482 31.656 214.026 32.584C214.57 33.48 214.842 34.664 214.842 36.136C214.842 38.408 213.978 40.216 212.25 41.56C210.554 42.904 208.25 43.576 205.338 43.576ZM227.322 43.576C225.946 43.576 224.586 43.4 223.242 43.048C221.93 42.696 220.698 42.2 219.546 41.56C218.426 40.888 217.466 40.12 216.666 39.256L220.842 35.032C221.61 35.864 222.522 36.52 223.578 37C224.634 37.448 225.786 37.672 227.034 37.672C227.898 37.672 228.554 37.544 229.002 37.288C229.482 37.032 229.722 36.68 229.722 36.232C229.722 35.656 229.434 35.224 228.858 34.936C228.314 34.616 227.61 34.344 226.746 34.12C225.882 33.864 224.97 33.592 224.01 33.304C223.05 33.016 222.138 32.616 221.274 32.104C220.41 31.592 219.706 30.888 219.162 29.992C218.618 29.064 218.346 27.896 218.346 26.488C218.346 24.984 218.73 23.688 219.498 22.6C220.266 21.48 221.354 20.6 222.762 19.96C224.17 19.32 225.818 19 227.706 19C229.69 19 231.514 19.352 233.178 20.056C234.874 20.728 236.25 21.736 237.306 23.08L233.13 27.304C232.394 26.44 231.562 25.832 230.634 25.48C229.738 25.128 228.858 24.952 227.994 24.952C227.162 24.952 226.538 25.08 226.122 25.336C225.706 25.56 225.498 25.896 225.498 26.344C225.498 26.824 225.77 27.208 226.314 27.496C226.858 27.784 227.562 28.04 228.426 28.264C229.29 28.488 230.202 28.76 231.162 29.08C232.122 29.4 233.034 29.832 233.898 30.376C234.762 30.92 235.466 31.656 236.01 32.584C236.554 33.48 236.826 34.664 236.826 36.136C236.826 38.408 235.962 40.216 234.234 41.56C232.538 42.904 230.234 43.576 227.322 43.576ZM259.071 43L248.175 9.112H255.663L263.631 35.176H260.703L268.479 9.112H274.383L282.159 35.176H279.279L287.199 9.112H294.639L283.743 43H277.839L270.015 16.936H272.799L264.975 43H259.071ZM306.277 43.528C303.877 43.528 301.701 43 299.749 41.944C297.829 40.856 296.309 39.384 295.189 37.528C294.069 35.672 293.509 33.592 293.509 31.288C293.509 28.984 294.069 26.92 295.189 25.096C296.309 23.272 297.829 21.832 299.749 20.776C301.669 19.688 303.845 19.144 306.277 19.144C308.709 19.144 310.885 19.672 312.805 20.728C314.725 21.784 316.245 23.24 317.365 25.096C318.485 26.92 319.045 28.984 319.045 31.288C319.045 33.592 318.485 35.672 317.365 37.528C316.245 39.384 314.725 40.856 312.805 41.944C310.885 43 308.709 43.528 306.277 43.528ZM306.277 36.856C307.333 36.856 308.261 36.632 309.061 36.184C309.861 35.704 310.469 35.048 310.885 34.216C311.333 33.352 311.557 32.376 311.557 31.288C311.557 30.2 311.333 29.256 310.885 28.456C310.437 27.624 309.813 26.984 309.013 26.536C308.245 26.056 307.333 25.816 306.277 25.816C305.253 25.816 304.341 26.056 303.541 26.536C302.741 26.984 302.117 27.624 301.669 28.456C301.221 29.288 300.997 30.248 300.997 31.336C300.997 32.392 301.221 33.352 301.669 34.216C302.117 35.048 302.741 35.704 303.541 36.184C304.341 36.632 305.253 36.856 306.277 36.856ZM322.701 43V19.672H330.045V43H322.701ZM330.045 30.184L326.973 27.784C327.581 25.064 328.605 22.952 330.045 21.448C331.485 19.944 333.485 19.192 336.045 19.192C337.165 19.192 338.141 19.368 338.973 19.72C339.837 20.04 340.589 20.552 341.229 21.256L336.861 26.776C336.541 26.424 336.141 26.152 335.661 25.96C335.181 25.768 334.637 25.672 334.029 25.672C332.813 25.672 331.837 26.056 331.101 26.824C330.397 27.56 330.045 28.68 330.045 30.184ZM358.114 43L349.954 30.904L358.066 19.672H366.274L356.482 32.296L356.722 29.272L366.754 43H358.114ZM343.186 43V8.152H350.53V43H343.186ZM376.526 43.576C375.15 43.576 373.79 43.4 372.446 43.048C371.134 42.696 369.902 42.2 368.75 41.56C367.63 40.888 366.67 40.12 365.87 39.256L370.046 35.032C370.814 35.864 371.726 36.52 372.782 37C373.838 37.448 374.99 37.672 376.238 37.672C377.102 37.672 377.758 37.544 378.206 37.288C378.686 37.032 378.926 36.68 378.926 36.232C378.926 35.656 378.638 35.224 378.062 34.936C377.518 34.616 376.814 34.344 375.95 34.12C375.086 33.864 374.174 33.592 373.214 33.304C372.253 33.016 371.342 32.616 370.478 32.104C369.614 31.592 368.91 30.888 368.366 29.992C367.822 29.064 367.55 27.896 367.55 26.488C367.55 24.984 367.934 23.688 368.702 22.6C369.47 21.48 370.558 20.6 371.966 19.96C373.374 19.32 375.022 19 376.91 19C378.894 19 380.718 19.352 382.382 20.056C384.078 20.728 385.454 21.736 386.51 23.08L382.334 27.304C381.598 26.44 380.766 25.832 379.838 25.48C378.942 25.128 378.062 24.952 377.198 24.952C376.366 24.952 375.742 25.08 375.326 25.336C374.91 25.56 374.702 25.896 374.702 26.344C374.702 26.824 374.974 27.208 375.518 27.496C376.062 27.784 376.766 28.04 377.63 28.264C378.494 28.488 379.406 28.76 380.366 29.08C381.326 29.4 382.238 29.832 383.102 30.376C383.966 30.92 384.67 31.656 385.214 32.584C385.758 33.48 386.03 34.664 386.03 36.136C386.03 38.408 385.166 40.216 383.438 41.56C381.742 42.904 379.438 43.576 376.526 43.576Z"/>
</mask>
<path d="M3.264 43H2.264V44H3.264V43ZM3.264 9.112V8.112H2.264V9.112H3.264ZM10.8 9.112H11.8V8.112H10.8V9.112ZM10.8 43V44H11.8V43H10.8ZM24.24 43H23.24V44H24.24V43ZM24.24 9.112V8.112H23.24V9.112H24.24ZM31.824 9.112H32.824V8.112H31.824V9.112ZM31.824 43V44H32.824V43H31.824ZM7.776 28.84H6.776V29.84H7.776V28.84ZM7.776 22.312V21.312H6.776V22.312H7.776ZM26.736 22.312H27.736V21.312H26.736V22.312ZM26.736 28.84V29.84H27.736V28.84H26.736ZM4.264 43V9.112H2.264V43H4.264ZM3.264 10.112H10.8V8.112H3.264V10.112ZM9.8 9.112V43H11.8V9.112H9.8ZM10.8 42H3.264V44H10.8V42ZM25.24 43V9.112H23.24V43H25.24ZM24.24 10.112H31.824V8.112H24.24V10.112ZM30.824 9.112V43H32.824V9.112H30.824ZM31.824 42H24.24V44H31.824V42ZM8.776 28.84V22.312H6.776V28.84H8.776ZM7.776 23.312H26.736V21.312H7.776V23.312ZM25.736 22.312V28.84H27.736V22.312H25.736ZM26.736 27.84H7.776V29.84H26.736V27.84ZM42.3585 41.944L41.8655 42.814L41.874 42.8189L41.8827 42.8235L42.3585 41.944ZM37.7985 37.528L38.6547 37.0113L37.7985 37.528ZM37.7985 25.096L36.9463 24.5727L37.7985 25.096ZM42.3585 20.776L42.8405 21.6523L42.8515 21.646L42.3585 20.776ZM59.9745 25.096L59.1183 25.6127L59.1223 25.6193L59.9745 25.096ZM59.9745 37.528L60.8307 38.0447L60.8307 38.0447L59.9745 37.528ZM55.4145 41.944L55.8965 42.8203L55.9075 42.814L55.4145 41.944ZM51.6705 36.184L52.1591 37.0565L52.1722 37.0492L52.185 37.0415L51.6705 36.184ZM53.4945 34.216L52.6067 33.7557L52.6034 33.7622L52.6001 33.7688L53.4945 34.216ZM53.4945 28.456L52.614 28.9301L52.618 28.9374L52.622 28.9446L53.4945 28.456ZM51.6225 26.536L51.0925 27.384L51.1129 27.3967L51.1339 27.4085L51.6225 26.536ZM46.1505 26.536L46.6391 27.4085L46.6522 27.4012L46.665 27.3935L46.1505 26.536ZM44.2785 28.456L45.159 28.9301L44.2785 28.456ZM44.2785 34.216L43.3907 34.6763L43.3943 34.6832L43.398 34.6901L44.2785 34.216ZM46.1505 36.184L45.636 37.0415L45.6488 37.0492L45.6619 37.0565L46.1505 36.184ZM48.8865 42.528C46.6388 42.528 44.6284 42.035 42.8343 41.0645L41.8827 42.8235C43.9926 43.965 46.3342 44.528 48.8865 44.528V42.528ZM42.8515 41.074C41.0781 40.069 39.6843 38.7176 38.6547 37.0113L36.9423 38.0447C38.1527 40.0504 39.7989 41.643 41.8655 42.814L42.8515 41.074ZM38.6547 37.0113C37.6347 35.3211 37.1185 33.4218 37.1185 31.288H35.1185C35.1185 33.7622 35.7223 36.0229 36.9423 38.0447L38.6547 37.0113ZM37.1185 31.288C37.1185 29.1541 37.6347 27.2738 38.6507 25.6193L36.9463 24.5727C35.7223 26.5662 35.1185 28.8139 35.1185 31.288H37.1185ZM38.6507 25.6193C39.6777 23.9467 41.0686 22.6267 42.8404 21.6522L41.8766 19.8998C39.8084 21.0373 38.1593 22.5973 36.9463 24.5727L38.6507 25.6193ZM42.8515 21.646C44.6062 20.6517 46.6092 20.144 48.8865 20.144V18.144C46.2998 18.144 43.9508 18.7243 41.8655 19.906L42.8515 21.646ZM48.8865 20.144C51.1689 20.144 53.1759 20.6381 54.9326 21.6042L55.8964 19.8518C53.8131 18.7059 51.4681 18.144 48.8865 18.144V20.144ZM54.9326 21.6042C56.7001 22.5764 58.0903 23.9091 59.1183 25.6127L60.8307 24.5793C59.6187 22.5709 57.9689 20.9916 55.8964 19.8518L54.9326 21.6042ZM59.1223 25.6193C60.1383 27.2738 60.6545 29.1541 60.6545 31.288H62.6545C62.6545 28.8139 62.0507 26.5662 60.8267 24.5727L59.1223 25.6193ZM60.6545 31.288C60.6545 33.4218 60.1383 35.3211 59.1183 37.0113L60.8307 38.0447C62.0507 36.0229 62.6545 33.7622 62.6545 31.288H60.6545ZM59.1183 37.0113C58.0887 38.7176 56.6949 40.069 54.9215 41.074L55.9075 42.814C57.9741 41.643 59.6203 40.0504 60.8307 38.0447L59.1183 37.0113ZM54.9326 41.0678C53.1759 42.0339 51.1689 42.528 48.8865 42.528V44.528C51.4681 44.528 53.8131 43.9661 55.8964 42.8202L54.9326 41.0678ZM48.8865 37.856C50.0874 37.856 51.1885 37.6001 52.1591 37.0565L51.1819 35.3115C50.5525 35.6639 49.7976 35.856 48.8865 35.856V37.856ZM52.185 37.0415C53.1476 36.464 53.8876 35.6659 54.3889 34.6632L52.6001 33.7688C52.2694 34.4301 51.7934 34.944 51.156 35.3265L52.185 37.0415ZM54.3823 34.6763C54.9123 33.654 55.1665 32.5171 55.1665 31.288H53.1665C53.1665 32.2349 52.9727 33.05 52.6067 33.7557L54.3823 34.6763ZM55.1665 31.288C55.1665 30.0609 54.913 28.9423 54.367 27.9674L52.622 28.9446C52.972 29.5697 53.1665 30.3391 53.1665 31.288H55.1665ZM54.375 27.9819C53.8398 26.988 53.0822 26.2073 52.1111 25.6635L51.1339 27.4085C51.7628 27.7607 52.2532 28.26 52.614 28.9301L54.375 27.9819ZM52.1525 25.688C51.2007 25.0931 50.0983 24.816 48.8865 24.816V26.816C49.7867 26.816 50.5083 27.0189 51.0925 27.384L52.1525 25.688ZM48.8865 24.816C47.6995 24.816 46.6064 25.0963 45.636 25.6785L46.665 27.3935C47.2946 27.0157 48.0255 26.816 48.8865 26.816V24.816ZM45.6619 25.6635C44.6908 26.2073 43.9332 26.988 43.398 27.9819L45.159 28.9301C45.5198 28.26 46.0102 27.7607 46.6391 27.4085L45.6619 25.6635ZM43.398 27.9819C42.8604 28.9803 42.6065 30.1078 42.6065 31.336H44.6065C44.6065 30.3882 44.8006 29.5957 45.159 28.9301L43.398 27.9819ZM42.6065 31.336C42.6065 32.5383 42.8628 33.6582 43.3907 34.6763L45.1663 33.7557C44.7982 33.0458 44.6065 32.2457 44.6065 31.336H42.6065ZM43.398 34.6901C43.9302 35.6783 44.6797 36.4677 45.636 37.0415L46.665 35.3265C46.0213 34.9403 45.5228 34.4177 45.159 33.7419L43.398 34.6901ZM45.6619 37.0565C46.628 37.5975 47.7118 37.856 48.8865 37.856V35.856C48.0132 35.856 47.273 35.6665 46.6391 35.3115L45.6619 37.0565ZM70.554 43L69.6089 43.3267L69.8416 44H70.554V43ZM62.49 19.672V18.672H61.0863L61.5449 19.9987L62.49 19.672ZM69.69 19.672L70.6492 19.3894L70.4379 18.672H69.69V19.672ZM74.682 36.616L74.7047 37.6157L76.0103 37.5861L75.6412 36.3334L74.682 36.616ZM72.57 36.664L71.6189 36.355L71.1834 37.6958L72.5927 37.6637L72.57 36.664ZM78.09 19.672V18.672H77.3634L77.1389 19.363L78.09 19.672ZM84.042 19.672L84.9923 19.3606L84.7666 18.672H84.042V19.672ZM89.61 36.664L89.5878 37.6638L91.0002 37.6951L90.5603 36.3526L89.61 36.664ZM87.45 36.616L86.4915 36.3309L86.118 37.5866L87.4278 37.6158L87.45 36.616ZM92.49 19.672V18.672H91.7442L91.5315 19.3869L92.49 19.672ZM99.69 19.672L100.635 19.9987L101.094 18.672H99.69V19.672ZM91.626 43V44H92.3384L92.5711 43.3267L91.626 43ZM85.626 43L84.6782 43.3188L84.9073 44H85.626V43ZM80.202 26.872V25.872H78.8107L79.2542 27.1908L80.202 26.872ZM82.026 26.872L82.9721 27.1958L83.4252 25.872H82.026V26.872ZM76.506 43V44H77.2207L77.4521 43.3238L76.506 43ZM71.4991 42.6733L63.4351 19.3453L61.5449 19.9987L69.6089 43.3267L71.4991 42.6733ZM62.49 20.672H69.69V18.672H62.49V20.672ZM68.7308 19.9546L73.7228 36.8986L75.6412 36.3334L70.6492 19.3894L68.7308 19.9546ZM74.6593 35.6163L72.5473 35.6643L72.5927 37.6637L74.7047 37.6157L74.6593 35.6163ZM73.5211 36.973L79.0411 19.981L77.1389 19.363L71.6189 36.355L73.5211 36.973ZM78.09 20.672H84.042V18.672H78.09V20.672ZM83.0917 19.9834L88.6597 36.9754L90.5603 36.3526L84.9923 19.3606L83.0917 19.9834ZM89.6322 35.6642L87.4722 35.6162L87.4278 37.6158L89.5878 37.6638L89.6322 35.6642ZM88.4085 36.9011L93.4485 19.9571L91.5315 19.3869L86.4915 36.3309L88.4085 36.9011ZM92.49 20.672H99.69V18.672H92.49V20.672ZM98.7449 19.3453L90.6809 42.6733L92.5711 43.3267L100.635 19.9987L98.7449 19.3453ZM91.626 42H85.626V44H91.626V42ZM86.5738 42.6812L81.1498 26.5532L79.2542 27.1908L84.6782 43.3188L86.5738 42.6812ZM80.202 27.872H82.026V25.872H80.202V27.872ZM81.0799 26.5482L75.5599 42.6762L77.4521 43.3238L82.9721 27.1958L81.0799 26.5482ZM76.506 42H70.554V44H76.506V42ZM118.102 43H117.102V44H118.102V43ZM118.102 37.144V36.144H117.102V37.144H118.102ZM129.526 35.848L130.246 36.5416L129.526 35.848ZM128.566 28.792L128.07 29.6602L128.079 29.6652L128.087 29.6699L128.566 28.792ZM118.102 28.216H117.102V29.216H118.102V28.216ZM118.102 22.504V21.504H117.102V22.504H118.102ZM128.47 21.592L129.091 22.376L129.101 22.3683L129.11 22.3602L128.47 21.592ZM128.47 15.928L127.83 16.6962L127.84 16.7043L127.849 16.712L128.47 15.928ZM118.102 14.968H117.102V15.968H118.102V14.968ZM118.102 9.112V8.112H117.102V9.112H118.102ZM132.406 10.312L131.936 11.1949L131.944 11.1989L132.406 10.312ZM135.91 13.528L135.051 14.0395V14.0395L135.91 13.528ZM135.094 23.272L135.825 23.9543V23.9543L135.094 23.272ZM129.142 26.248L128.145 26.1727L128.045 27.4967L129.345 27.2272L129.142 26.248ZM129.334 23.704L129.522 22.7218L128.421 22.5116L128.337 23.6287L129.334 23.704ZM135.91 27.016L135.175 27.6943L135.182 27.7018L135.91 27.016ZM136.87 38.2L136.019 37.6749L136.016 37.6801L136.87 38.2ZM132.934 41.704L132.487 40.8095L132.48 40.813L132.934 41.704ZM112.342 43H111.342V44H112.342V43ZM112.342 9.112V8.112H111.342V9.112H112.342ZM119.782 9.112H120.782V8.112H119.782V9.112ZM119.782 43V44H120.782V43H119.782ZM119.102 43V37.144H117.102V43H119.102ZM118.102 38.144H126.07V36.144H118.102V38.144ZM126.07 38.144C127.748 38.144 129.185 37.6443 130.246 36.5416L128.806 35.1544C128.204 35.7797 127.336 36.144 126.07 36.144V38.144ZM130.246 36.5416C131.266 35.4831 131.774 34.1751 131.774 32.68H129.774C129.774 33.6809 129.45 34.4849 128.806 35.1544L130.246 36.5416ZM131.774 32.68C131.774 31.6627 131.546 30.72 131.066 29.8799L129.33 30.8721C129.618 31.376 129.774 31.9693 129.774 32.68H131.774ZM131.066 29.8799C130.587 29.041 129.905 28.3835 129.045 27.9141L128.087 29.6699C128.635 29.9685 129.041 30.367 129.33 30.8721L131.066 29.8799ZM129.062 27.9238C128.202 27.4324 127.188 27.216 126.07 27.216V29.216C126.936 29.216 127.586 29.3836 128.07 29.6602L129.062 27.9238ZM126.07 27.216H118.102V29.216H126.07V27.216ZM119.102 28.216V22.504H117.102V28.216H119.102ZM118.102 23.504H125.446V21.504H118.102V23.504ZM125.446 23.504C126.857 23.504 128.103 23.1584 129.091 22.376L127.849 20.808C127.302 21.2416 126.532 21.504 125.446 21.504V23.504ZM129.11 22.3602C130.167 21.4794 130.622 20.1989 130.622 18.712H128.622C128.622 19.7851 128.309 20.4246 127.83 20.8238L129.11 22.3602ZM130.622 18.712C130.622 17.2498 130.162 15.9919 129.091 15.144L127.849 16.712C128.314 17.0801 128.622 17.6782 128.622 18.712H130.622ZM129.11 15.1598C128.121 14.3357 126.868 13.968 125.446 13.968V15.968C126.52 15.968 127.283 16.2403 127.83 16.6962L129.11 15.1598ZM125.446 13.968H118.102V15.968H125.446V13.968ZM119.102 14.968V9.112H117.102V14.968H119.102ZM118.102 10.112H126.886V8.112H118.102V10.112ZM126.886 10.112C128.943 10.112 130.612 10.4902 131.937 11.1949L132.876 9.42912C131.193 8.53382 129.182 8.112 126.886 8.112V10.112ZM131.944 11.1989C133.334 11.9226 134.356 12.8719 135.051 14.0395L136.769 13.0165C135.864 11.4961 134.551 10.3014 132.868 9.42508L131.944 11.1989ZM135.051 14.0395C135.755 15.2219 136.11 16.5319 136.11 17.992H138.11C138.11 16.1881 137.666 14.5221 136.769 13.0165L135.051 14.0395ZM136.11 17.992C136.11 19.8343 135.524 21.3459 134.363 22.5897L135.825 23.9543C137.352 22.3181 138.11 20.3097 138.11 17.992H136.11ZM134.363 22.5897C133.203 23.8327 131.432 24.752 128.939 25.2688L129.345 27.2272C132.1 26.656 134.297 25.5913 135.825 23.9543L134.363 22.5897ZM130.139 26.3233L130.331 23.7793L128.337 23.6287L128.145 26.1727L130.139 26.3233ZM129.146 24.6862C131.844 25.2014 133.821 26.2267 135.175 27.6943L136.645 26.3377C134.928 24.4773 132.521 23.2946 129.522 22.7218L129.146 24.6862ZM135.182 27.7018C136.564 29.1677 137.262 30.9651 137.262 33.16H139.262C139.262 30.4909 138.393 28.1923 136.638 26.3302L135.182 27.7018ZM137.262 33.16C137.262 34.8403 136.845 36.3368 136.019 37.6749L137.721 38.7251C138.752 37.0552 139.262 35.1917 139.262 33.16H137.262ZM136.016 37.6801C135.229 38.9725 134.068 40.0192 132.487 40.8096L133.381 42.5984C135.257 41.6608 136.719 40.3715 137.724 38.7199L136.016 37.6801ZM132.48 40.813C130.957 41.5891 129.072 42 126.79 42V44C129.308 44 131.52 43.5469 133.388 42.595L132.48 40.813ZM126.79 42H118.102V44H126.79V42ZM113.342 43V9.112H111.342V43H113.342ZM112.342 10.112H119.782V8.112H112.342V10.112ZM118.782 9.112V43H120.782V9.112H118.782ZM119.782 42H112.342V44H119.782V42ZM147.076 42.232L146.595 43.1086L146.605 43.1142L146.615 43.1195L147.076 42.232ZM143.236 38.584L142.376 39.0933L142.38 39.1011L143.236 38.584ZM141.844 19.672V18.672H140.844V19.672H141.844ZM149.188 19.672H150.188V18.672H149.188V19.672ZM149.572 35.176L148.658 35.5821L148.668 35.6029L148.678 35.6232L149.572 35.176ZM150.82 36.52L151.327 35.6581L150.82 36.52ZM155.38 35.992L156.104 36.6817L156.112 36.6733L156.12 36.6647L155.38 35.992ZM156.34 19.672V18.672H155.34V19.672H156.34ZM163.684 19.672H164.684V18.672H163.684V19.672ZM162.292 38.584L163.148 39.1011L163.153 39.0933L162.292 38.584ZM158.452 42.232L158.92 43.1158L158.927 43.1122L158.933 43.1086L158.452 42.232ZM152.788 42.528C150.781 42.528 149.039 42.1246 147.537 41.3445L146.615 43.1195C148.441 44.0674 150.507 44.528 152.788 44.528V42.528ZM147.557 41.3554C146.074 40.5409 144.925 39.4464 144.092 38.0669L142.38 39.1011C143.403 40.7936 144.815 42.1311 146.595 43.1086L147.557 41.3554ZM144.097 38.0747C143.269 36.6769 142.844 35.0644 142.844 33.208H140.844C140.844 35.3836 141.347 37.3551 142.376 39.0933L144.097 38.0747ZM142.844 33.208V19.672H140.844V33.208H142.844ZM141.844 20.672H149.188V18.672H141.844V20.672ZM148.188 19.672V33.112H150.188V19.672H148.188ZM148.188 33.112C148.188 34.0156 148.332 34.8488 148.658 35.5821L150.486 34.7699C150.3 34.3512 150.188 33.8084 150.188 33.112H148.188ZM148.678 35.6232C149.05 36.3682 149.599 36.9619 150.313 37.3819L151.327 35.6581C150.953 35.4381 150.67 35.1358 150.467 34.7288L148.678 35.6232ZM150.313 37.3819C151.041 37.8101 151.88 38 152.788 38V36C152.16 36 151.687 35.8699 151.327 35.6581L150.313 37.3819ZM152.788 38C154.099 38 155.243 37.5861 156.104 36.6817L154.656 35.3023C154.237 35.7419 153.654 36 152.788 36V38ZM156.12 36.6647C156.97 35.7298 157.34 34.5053 157.34 33.112H155.34C155.34 34.1507 155.07 34.8462 154.64 35.3193L156.12 36.6647ZM157.34 33.112V19.672H155.34V33.112H157.34ZM156.34 20.672H163.684V18.672H156.34V20.672ZM162.684 19.672V33.16H164.684V19.672H162.684ZM162.684 33.16C162.684 35.0515 162.257 36.6794 161.432 38.0747L163.153 39.0933C164.183 37.3526 164.684 35.3645 164.684 33.16H162.684ZM161.436 38.0669C160.603 39.4464 159.455 40.5409 157.971 41.3554L158.933 43.1086C160.714 42.1311 162.125 40.7936 163.148 39.1011L161.436 38.0669ZM157.984 41.3482C156.518 42.1244 154.795 42.528 152.788 42.528V44.528C155.069 44.528 157.122 44.0676 158.92 43.1158L157.984 41.3482ZM172.327 41.896L171.799 42.7449L171.806 42.7493L172.327 41.896ZM168.295 37.576L167.41 38.0418L167.417 38.0538L168.295 37.576ZM168.295 25.096L167.417 24.6182L167.41 24.6303L168.295 25.096ZM172.327 20.776L171.806 19.9227L171.799 19.9271L172.327 20.776ZM182.551 20.104L182.122 21.0073L182.131 21.0113L182.551 20.104ZM185.767 22.648L184.973 23.2554L184.983 23.2685L184.993 23.2812L185.767 22.648ZM187.207 26.296H188.207V26.2612L188.205 26.2264L187.207 26.296ZM187.207 36.136L188.205 36.2056L188.207 36.1708V36.136H187.207ZM185.815 39.88L186.61 40.4875L186.618 40.4763L185.815 39.88ZM182.599 42.52L183.038 43.4188L183.046 43.4145L183.055 43.41L182.599 42.52ZM182.263 36.184L182.767 37.0478L182.78 37.0401L182.793 37.032L182.263 36.184ZM184.087 34.216L183.207 33.7419V33.7419L184.087 34.216ZM184.087 28.504L183.193 28.9512L183.203 28.9722L183.215 28.9926L184.087 28.504ZM182.263 26.536L181.733 27.384L181.741 27.3888L181.749 27.3935L182.263 26.536ZM176.839 26.536L176.325 25.6785L176.317 25.6832L176.309 25.688L176.839 26.536ZM174.967 28.504L174.101 28.0043L174.094 28.017L174.087 28.0299L174.967 28.504ZM174.967 34.168L174.087 34.6421L174.967 34.168ZM191.671 43V44H192.671V43H191.671ZM184.471 43H183.471V44H184.471V43ZM184.471 36.712L183.49 36.5207L183.471 36.6155V36.712H184.471ZM185.575 31.048L186.557 31.2393L186.596 31.0356L186.552 30.8328L185.575 31.048ZM184.327 25.384H183.327V25.4929L183.351 25.5992L184.327 25.384ZM184.327 8.152V7.152H183.327V8.152H184.327ZM191.671 8.152H192.671V7.152H191.671V8.152ZM178.231 42.48C176.19 42.48 174.406 41.9942 172.849 41.0427L171.806 42.7493C173.705 43.9098 175.856 44.48 178.231 44.48V42.48ZM172.856 41.0471C171.312 40.0861 170.086 38.7766 169.174 37.0982L167.417 38.0538C168.488 40.0234 169.95 41.5939 171.799 42.7449L172.856 41.0471ZM169.18 37.1103C168.305 35.448 167.855 33.5316 167.855 31.336H165.855C165.855 33.8124 166.365 36.056 167.41 38.0417L169.18 37.1103ZM167.855 31.336C167.855 29.1404 168.305 27.224 169.18 25.5617L167.41 24.6303C166.365 26.616 165.855 28.8596 165.855 31.336H167.855ZM169.174 25.5738C170.086 23.8954 171.312 22.5859 172.856 21.6249L171.799 19.9271C169.95 21.0781 168.488 22.6486 167.417 24.6182L169.174 25.5738ZM172.849 21.6293C174.406 20.6778 176.19 20.192 178.231 20.192V18.192C175.856 18.192 173.705 18.7622 171.806 19.9227L172.849 21.6293ZM178.231 20.192C179.702 20.192 180.992 20.4707 182.122 21.0073L182.98 19.2007C181.55 18.5213 179.96 18.192 178.231 18.192V20.192ZM182.131 21.0113C183.304 21.5551 184.245 22.3034 184.973 23.2554L186.561 22.0405C185.625 20.8166 184.422 19.8689 182.972 19.1967L182.131 21.0113ZM184.993 23.2812C185.725 24.1752 186.128 25.1937 186.21 26.3656L188.205 26.2264C188.094 24.6463 187.538 23.2328 186.541 22.0148L184.993 23.2812ZM186.207 26.296V36.136H188.207V26.296H186.207ZM186.21 36.0664C186.127 37.2495 185.732 38.3152 185.012 39.2837L186.618 40.4763C187.562 39.2048 188.095 37.7745 188.205 36.2056L186.21 36.0664ZM185.021 39.2725C184.286 40.2335 183.333 41.0205 182.143 41.63L183.055 43.41C184.489 42.6755 185.68 41.7025 186.609 40.4874L185.021 39.2725ZM182.161 41.6212C180.998 42.1884 179.694 42.48 178.231 42.48V44.48C179.968 44.48 181.576 44.1316 183.038 43.4188L182.161 41.6212ZM179.527 37.856C180.727 37.856 181.82 37.6004 182.767 37.0478L181.759 35.3202C181.171 35.6636 180.439 35.856 179.527 35.856V37.856ZM182.793 37.032C183.715 36.4559 184.441 35.6682 184.968 34.6901L183.207 33.7419C182.837 34.4278 182.347 34.9521 181.733 35.336L182.793 37.032ZM184.968 34.6901C185.505 33.6917 185.759 32.5642 185.759 31.336H183.759C183.759 32.2838 183.565 33.0763 183.207 33.7419L184.968 34.6901ZM185.759 31.336C185.759 30.1089 185.506 28.9903 184.96 28.0154L183.215 28.9926C183.565 29.6177 183.759 30.3871 183.759 31.336H185.759ZM184.982 28.0568C184.48 27.0541 183.74 26.256 182.778 25.6785L181.749 27.3935C182.386 27.7759 182.862 28.2899 183.193 28.9512L184.982 28.0568ZM182.793 25.688C181.846 25.0961 180.761 24.816 179.575 24.816V26.816C180.437 26.816 181.144 27.0159 181.733 27.384L182.793 25.688ZM179.575 24.816C178.388 24.816 177.295 25.0963 176.325 25.6785L177.354 27.3935C177.983 27.0157 178.714 26.816 179.575 26.816V24.816ZM176.309 25.688C175.394 26.2601 174.658 27.0393 174.101 28.0043L175.833 29.0037C176.237 28.3047 176.748 27.7719 177.369 27.384L176.309 25.688ZM174.087 28.0299C173.551 29.0241 173.295 30.1343 173.295 31.336H175.295C175.295 30.4257 175.487 29.6479 175.848 28.9781L174.087 28.0299ZM173.295 31.336C173.295 32.5377 173.551 33.6479 174.087 34.6421L175.848 33.6939C175.487 33.0241 175.295 32.2463 175.295 31.336H173.295ZM174.087 34.6421C174.619 35.6303 175.368 36.4197 176.325 36.9935L177.354 35.2785C176.71 34.8923 176.211 34.3697 175.848 33.6939L174.087 34.6421ZM176.325 36.9935C177.29 37.5727 178.366 37.856 179.527 37.856V35.856C178.704 35.856 177.988 35.6593 177.354 35.2785L176.325 36.9935ZM191.671 42H184.471V44H191.671V42ZM185.471 43V36.712H183.471V43H185.471ZM185.453 36.9033L186.557 31.2393L184.594 30.8567L183.49 36.5207L185.453 36.9033ZM186.552 30.8328L185.304 25.1688L183.351 25.5992L184.599 31.2632L186.552 30.8328ZM185.327 25.384V8.152H183.327V25.384H185.327ZM184.327 9.152H191.671V7.152H184.327V9.152ZM190.671 8.152V43H192.671V8.152H190.671ZM201.258 43.048L200.999 44.0139L201.005 44.0154L201.258 43.048ZM197.562 41.56L197.048 42.4175L197.062 42.4261L197.076 42.4342L197.562 41.56ZM194.682 39.256L193.971 38.5529L193.298 39.2334L193.948 39.9354L194.682 39.256ZM198.858 35.032L199.593 34.3537L198.883 33.5845L198.147 34.3289L198.858 35.032ZM201.594 37L201.18 37.9104L201.192 37.9156L201.203 37.9206L201.594 37ZM207.018 37.288L206.547 36.4056L206.535 36.4125L206.522 36.4198L207.018 37.288ZM206.874 34.936L206.367 35.7979L206.396 35.8152L206.427 35.8304L206.874 34.936ZM204.762 34.12L204.478 35.0788L204.494 35.0837L204.511 35.088L204.762 34.12ZM199.29 32.104L199.8 31.2437L199.29 32.104ZM197.178 29.992L196.315 30.4977L196.319 30.5044L196.323 30.511L197.178 29.992ZM197.514 22.6L198.331 23.1767L198.339 23.1655L197.514 22.6ZM200.778 19.96L200.364 19.0496L200.778 19.96ZM211.194 20.056L210.804 20.977L210.815 20.9814L210.826 20.9857L211.194 20.056ZM215.322 23.08L216.033 23.7831L216.653 23.1558L216.108 22.4622L215.322 23.08ZM211.146 27.304L210.385 27.9525L211.091 28.7818L211.857 28.0071L211.146 27.304ZM208.65 25.48L208.284 26.4108L208.295 26.415L208.65 25.48ZM204.138 25.336L204.612 26.2165L204.638 26.2028L204.662 26.1877L204.138 25.336ZM206.442 28.264L206.191 29.232L206.442 28.264ZM209.178 29.08L209.494 28.1313L209.178 29.08ZM211.914 30.376L212.447 29.5298L211.914 30.376ZM214.026 32.584L213.163 33.0897L213.167 33.0964L213.171 33.103L214.026 32.584ZM212.25 41.56L211.636 40.7706L211.629 40.7763L212.25 41.56ZM205.338 42.576C204.048 42.576 202.773 42.4112 201.511 42.0806L201.005 44.0154C202.431 44.3888 203.876 44.576 205.338 44.576V42.576ZM201.517 42.0822C200.282 41.7507 199.126 41.2849 198.048 40.6858L197.076 42.4342C198.302 43.1151 199.61 43.6413 200.999 44.0138L201.517 42.0822ZM198.076 40.7025C197.029 40.0739 196.145 39.364 195.416 38.5766L193.948 39.9354C194.819 40.876 195.855 41.7021 197.048 42.4175L198.076 40.7025ZM195.393 39.9591L199.569 35.7351L198.147 34.3289L193.971 38.5529L195.393 39.9591ZM198.123 35.7103C198.984 36.6427 200.006 37.3766 201.18 37.9104L202.008 36.0896C201.07 35.6634 200.268 35.0853 199.593 34.3537L198.123 35.7103ZM201.203 37.9206C202.393 38.4254 203.68 38.672 205.05 38.672V36.672C203.924 36.672 202.907 36.4706 201.985 36.0794L201.203 37.9206ZM205.05 38.672C205.984 38.672 206.845 38.5386 207.514 38.1562L206.522 36.4198C206.295 36.5494 205.844 36.672 205.05 36.672V38.672ZM207.489 38.1704C208.211 37.785 208.738 37.1351 208.738 36.232H206.738C206.738 36.2537 206.735 36.2624 206.735 36.2627C206.735 36.2632 206.735 36.2634 206.735 36.2637C206.735 36.264 206.734 36.2656 206.732 36.2687C206.725 36.2793 206.683 36.3332 206.547 36.4056L207.489 38.1704ZM208.738 36.232C208.738 35.769 208.619 35.3193 208.354 34.9213C208.093 34.5296 207.728 34.2449 207.321 34.0416L206.427 35.8304C206.596 35.9151 206.663 35.9904 206.69 36.0307C206.713 36.0647 206.738 36.119 206.738 36.232H208.738ZM207.381 34.0741C206.732 33.692 205.933 33.3905 205.013 33.152L204.511 35.088C205.319 35.2975 205.928 35.54 206.367 35.7979L207.381 34.0741ZM205.046 33.1612C204.183 32.9056 203.272 32.6339 202.313 32.3462L201.739 34.2618C202.7 34.5501 203.613 34.8224 204.478 35.0788L205.046 33.1612ZM202.313 32.3462C201.431 32.0816 200.594 31.7144 199.8 31.2437L198.78 32.9643C199.714 33.5176 200.701 33.9504 201.739 34.2618L202.313 32.3462ZM199.8 31.2437C199.083 30.8191 198.495 30.235 198.033 29.473L196.323 30.511C196.949 31.541 197.769 32.3649 198.78 32.9643L199.8 31.2437ZM198.041 29.4863C197.61 28.752 197.362 27.7717 197.362 26.488H195.362C195.362 28.0203 195.658 29.376 196.315 30.4977L198.041 29.4863ZM197.362 26.488C197.362 25.1627 197.697 24.0746 198.331 23.1767L196.697 22.0233C195.795 23.3014 195.362 24.8053 195.362 26.488H197.362ZM198.339 23.1655C198.99 22.2157 199.926 21.4457 201.192 20.8704L200.364 19.0496C198.814 19.7543 197.574 20.7443 196.689 22.0345L198.339 23.1655ZM201.192 20.8704C202.444 20.301 203.946 20 205.722 20V18C203.722 18 201.928 18.339 200.364 19.0496L201.192 20.8704ZM205.722 20C207.585 20 209.275 20.33 210.804 20.977L211.584 19.135C209.785 18.374 207.827 18 205.722 18V20ZM210.826 20.9857C212.369 21.5971 213.596 22.5023 214.536 23.6978L216.108 22.4622C214.936 20.9697 213.411 19.8589 211.562 19.1263L210.826 20.9857ZM214.611 22.3769L210.435 26.6009L211.857 28.0071L216.033 23.7831L214.611 22.3769ZM211.907 26.6555C211.078 25.6819 210.112 24.9649 209.005 24.545L208.295 26.415C209.044 26.6991 209.742 27.1981 210.385 27.9525L211.907 26.6555ZM209.016 24.5492C208.016 24.1567 207.013 23.952 206.01 23.952V25.952C206.735 25.952 207.492 26.0993 208.284 26.4108L209.016 24.5492ZM206.01 23.952C205.108 23.952 204.263 24.0849 203.614 24.4843L204.662 26.1877C204.845 26.0751 205.248 25.952 206.01 25.952V23.952ZM203.664 24.4555C203.332 24.6343 203.032 24.886 202.82 25.2296C202.605 25.5761 202.514 25.9595 202.514 26.344H204.514C204.514 26.3096 204.518 26.2915 204.52 26.2854C204.521 26.2801 204.521 26.2804 204.52 26.2824C204.516 26.29 204.528 26.2617 204.612 26.2165L203.664 24.4555ZM202.514 26.344C202.514 27.3029 203.099 27.9759 203.862 28.3798L204.798 26.6122C204.623 26.5197 204.556 26.445 204.534 26.414C204.52 26.3945 204.514 26.3814 204.514 26.344H202.514ZM203.862 28.3798C204.498 28.7165 205.282 28.9964 206.191 29.232L206.693 27.296C205.874 27.0836 205.25 26.8515 204.798 26.6122L203.862 28.3798ZM206.191 29.232C207.03 29.4496 207.921 29.7149 208.862 30.0287L209.494 28.1313C208.515 27.8051 207.582 27.5264 206.693 27.296L206.191 29.232ZM208.862 30.0287C209.745 30.3231 210.584 30.7206 211.381 31.2222L212.447 29.5298C211.516 28.9434 210.531 28.4769 209.494 28.1313L208.862 30.0287ZM211.381 31.2222C212.102 31.6762 212.696 32.2924 213.163 33.0897L214.889 32.0783C214.268 31.0196 213.454 30.1638 212.447 29.5298L211.381 31.2222ZM213.171 33.103C213.589 33.7916 213.842 34.7765 213.842 36.136H215.842C215.842 34.5515 215.551 33.1684 214.881 32.065L213.171 33.103ZM213.842 36.136C213.842 38.113 213.11 39.6243 211.636 40.7706L212.864 42.3494C214.846 40.8077 215.842 38.703 215.842 36.136H213.842ZM211.629 40.7763C210.162 41.9386 208.102 42.576 205.338 42.576V44.576C208.398 44.576 210.946 43.8694 212.871 42.3437L211.629 40.7763ZM223.242 43.048L222.983 44.0139L222.989 44.0154L223.242 43.048ZM219.546 41.56L219.032 42.4175L219.046 42.4261L219.061 42.4342L219.546 41.56ZM216.666 39.256L215.955 38.5529L215.283 39.2334L215.933 39.9354L216.666 39.256ZM220.842 35.032L221.577 34.3537L220.867 33.5845L220.131 34.3289L220.842 35.032ZM223.578 37L223.165 37.9104L223.176 37.9156L223.188 37.9206L223.578 37ZM229.002 37.288L228.532 36.4056L228.519 36.4125L228.506 36.4198L229.002 37.288ZM228.858 34.936L228.351 35.7979L228.381 35.8152L228.411 35.8304L228.858 34.936ZM226.746 34.12L226.462 35.0788L226.479 35.0837L226.495 35.088L226.746 34.12ZM221.274 32.104L221.784 31.2437L221.274 32.104ZM219.162 29.992L218.3 30.4977L218.304 30.5044L218.308 30.511L219.162 29.992ZM219.498 22.6L220.315 23.1767L220.323 23.1655L219.498 22.6ZM222.762 19.96L222.349 19.0496L222.762 19.96ZM233.178 20.056L232.789 20.977L232.799 20.9814L232.81 20.9857L233.178 20.056ZM237.306 23.08L238.018 23.7831L238.638 23.1558L238.093 22.4622L237.306 23.08ZM233.13 27.304L232.369 27.9525L233.076 28.7818L233.842 28.0071L233.13 27.304ZM230.634 25.48L230.269 26.4108L230.28 26.415L230.634 25.48ZM226.122 25.336L226.596 26.2165L226.622 26.2028L226.646 26.1877L226.122 25.336ZM228.426 28.264L228.175 29.232L228.426 28.264ZM231.162 29.08L231.479 28.1313L231.162 29.08ZM233.898 30.376L234.431 29.5298L233.898 30.376ZM236.01 32.584L235.148 33.0897L235.152 33.0964L235.156 33.103L236.01 32.584ZM234.234 41.56L233.62 40.7706L233.613 40.7763L234.234 41.56ZM227.322 42.576C226.033 42.576 224.758 42.4112 223.496 42.0806L222.989 44.0154C224.415 44.3888 225.86 44.576 227.322 44.576V42.576ZM223.502 42.0822C222.266 41.7507 221.11 41.2849 220.032 40.6858L219.061 42.4342C220.286 43.1151 221.595 43.6413 222.983 44.0138L223.502 42.0822ZM220.061 40.7025C219.013 40.0739 218.129 39.364 217.4 38.5766L215.933 39.9354C216.803 40.876 217.839 41.7021 219.032 42.4175L220.061 40.7025ZM217.378 39.9591L221.554 35.7351L220.131 34.3289L215.955 38.5529L217.378 39.9591ZM220.108 35.7103C220.968 36.6427 221.99 37.3766 223.165 37.9104L223.992 36.0896C223.055 35.6634 222.252 35.0853 221.577 34.3537L220.108 35.7103ZM223.188 37.9206C224.378 38.4254 225.664 38.672 227.034 38.672V36.672C225.909 36.672 224.891 36.4706 223.969 36.0794L223.188 37.9206ZM227.034 38.672C227.969 38.672 228.829 38.5386 229.499 38.1562L228.506 36.4198C228.279 36.5494 227.828 36.672 227.034 36.672V38.672ZM229.473 38.1704C230.195 37.785 230.722 37.1351 230.722 36.232H228.722C228.722 36.2537 228.72 36.2624 228.72 36.2627C228.719 36.2632 228.719 36.2634 228.719 36.2637C228.719 36.264 228.718 36.2656 228.716 36.2687C228.709 36.2793 228.668 36.3332 228.532 36.4056L229.473 38.1704ZM230.722 36.232C230.722 35.769 230.604 35.3193 230.338 34.9213C230.077 34.5296 229.712 34.2449 229.306 34.0416L228.411 35.8304C228.581 35.9151 228.647 35.9904 228.674 36.0307C228.697 36.0647 228.722 36.119 228.722 36.232H230.722ZM229.365 34.0741C228.716 33.692 227.917 33.3905 226.997 33.152L226.495 35.088C227.304 35.2975 227.913 35.54 228.351 35.7979L229.365 34.0741ZM227.03 33.1612C226.168 32.9056 225.257 32.6339 224.298 32.3462L223.723 34.2618C224.684 34.5501 225.597 34.8224 226.462 35.0788L227.03 33.1612ZM224.298 32.3462C223.416 32.0816 222.578 31.7144 221.784 31.2437L220.765 32.9643C221.698 33.5176 222.685 33.9504 223.723 34.2618L224.298 32.3462ZM221.784 31.2437C221.068 30.8191 220.48 30.235 220.017 29.473L218.308 30.511C218.933 31.541 219.753 32.3649 220.765 32.9643L221.784 31.2437ZM220.025 29.4863C219.595 28.752 219.346 27.7717 219.346 26.488H217.346C217.346 28.0203 217.642 29.376 218.3 30.4977L220.025 29.4863ZM219.346 26.488C219.346 25.1627 219.682 24.0746 220.315 23.1767L218.681 22.0233C217.779 23.3014 217.346 24.8053 217.346 26.488H219.346ZM220.323 23.1655C220.974 22.2157 221.91 21.4457 223.176 20.8704L222.349 19.0496C220.798 19.7543 219.558 20.7443 218.674 22.0345L220.323 23.1655ZM223.176 20.8704C224.429 20.301 225.93 20 227.706 20V18C225.706 18 223.912 18.339 222.349 19.0496L223.176 20.8704ZM227.706 20C229.57 20 231.26 20.33 232.789 20.977L233.568 19.135C231.769 18.374 229.811 18 227.706 18V20ZM232.81 20.9857C234.353 21.5971 235.581 22.5023 236.52 23.6978L238.093 22.4622C236.92 20.9697 235.396 19.8589 233.547 19.1263L232.81 20.9857ZM236.595 22.3769L232.419 26.6009L233.842 28.0071L238.018 23.7831L236.595 22.3769ZM233.892 26.6555C233.062 25.6819 232.096 24.9649 230.989 24.545L230.28 26.415C231.029 26.6991 231.727 27.1981 232.369 27.9525L233.892 26.6555ZM231 24.5492C230.001 24.1567 228.997 23.952 227.994 23.952V25.952C228.72 25.952 229.476 26.0993 230.269 26.4108L231 24.5492ZM227.994 23.952C227.092 23.952 226.247 24.0849 225.598 24.4843L226.646 26.1877C226.829 26.0751 227.232 25.952 227.994 25.952V23.952ZM225.648 24.4555C225.316 24.6343 225.017 24.886 224.804 25.2296C224.59 25.5761 224.498 25.9595 224.498 26.344H226.498C226.498 26.3096 226.502 26.2915 226.504 26.2854C226.505 26.2801 226.506 26.2804 226.505 26.2824C226.5 26.29 226.512 26.2617 226.596 26.2165L225.648 24.4555ZM224.498 26.344C224.498 27.3029 225.084 27.9759 225.846 28.3798L226.782 26.6122C226.608 26.5197 226.54 26.445 226.518 26.414C226.505 26.3945 226.498 26.3814 226.498 26.344H224.498ZM225.846 28.3798C226.482 28.7165 227.267 28.9964 228.175 29.232L228.677 27.296C227.858 27.0836 227.234 26.8515 226.782 26.6122L225.846 28.3798ZM228.175 29.232C229.015 29.4496 229.905 29.7149 230.846 30.0287L231.479 28.1313C230.5 27.8051 229.566 27.5264 228.677 27.296L228.175 29.232ZM230.846 30.0287C231.729 30.3231 232.569 30.7206 233.366 31.2222L234.431 29.5298C233.5 28.9434 232.515 28.4769 231.479 28.1313L230.846 30.0287ZM233.366 31.2222C234.087 31.6762 234.68 32.2924 235.148 33.0897L236.873 32.0783C236.252 31.0196 235.438 30.1638 234.431 29.5298L233.366 31.2222ZM235.156 33.103C235.574 33.7916 235.826 34.7765 235.826 36.136H237.826C237.826 34.5515 237.535 33.1684 236.865 32.065L235.156 33.103ZM235.826 36.136C235.826 38.113 235.094 39.6243 233.62 40.7706L234.848 42.3494C236.83 40.8077 237.826 38.703 237.826 36.136H235.826ZM233.613 40.7763C232.147 41.9386 230.087 42.576 227.322 42.576V44.576C230.382 44.576 232.93 43.8694 234.855 42.3437L233.613 40.7763ZM259.071 43L258.119 43.3061L258.342 44H259.071V43ZM248.175 9.112V8.112H246.803L247.223 9.41809L248.175 9.112ZM255.663 9.112L256.62 8.81965L256.403 8.112H255.663V9.112ZM263.631 35.176V36.176H264.983L264.588 34.8836L263.631 35.176ZM260.703 35.176L259.745 34.8901L259.361 36.176H260.703V35.176ZM268.479 9.112V8.112H267.734L267.521 8.82611L268.479 9.112ZM274.383 9.112L275.342 8.82611L275.129 8.112H274.383V9.112ZM282.159 35.176V36.176H283.501L283.118 34.8901L282.159 35.176ZM279.279 35.176L278.323 34.8853L277.93 36.176H279.279V35.176ZM287.199 9.112V8.112H286.458L286.243 8.82126L287.199 9.112ZM294.639 9.112L295.591 9.41809L296.011 8.112H294.639V9.112ZM283.743 43V44H284.472L284.695 43.3061L283.743 43ZM277.839 43L276.882 43.2875L277.095 44H277.839V43ZM270.015 16.936V15.936H268.671L269.058 17.2235L270.015 16.936ZM272.799 16.936L273.757 17.2235L274.144 15.936H272.799V16.936ZM264.975 43V44H265.719L265.933 43.2875L264.975 43ZM260.023 42.6939L249.127 8.8059L247.223 9.41809L258.119 43.3061L260.023 42.6939ZM248.175 10.112H255.663V8.112H248.175V10.112ZM254.707 9.40435L262.675 35.4684L264.588 34.8836L256.62 8.81965L254.707 9.40435ZM263.631 34.176H260.703V36.176H263.631V34.176ZM261.662 35.4619L269.438 9.39789L267.521 8.82611L259.745 34.8901L261.662 35.4619ZM268.479 10.112H274.383V8.112H268.479V10.112ZM273.425 9.39789L281.201 35.4619L283.118 34.8901L275.342 8.82611L273.425 9.39789ZM282.159 34.176H279.279V36.176H282.159V34.176ZM280.236 35.4667L288.156 9.40274L286.243 8.82126L278.323 34.8853L280.236 35.4667ZM287.199 10.112H294.639V8.112H287.199V10.112ZM293.687 8.8059L282.791 42.6939L284.695 43.3061L295.591 9.41809L293.687 8.8059ZM283.743 42H277.839V44H283.743V42ZM278.797 42.7125L270.973 16.6485L269.058 17.2235L276.882 43.2875L278.797 42.7125ZM270.015 17.936H272.799V15.936H270.015V17.936ZM271.842 16.6485L264.018 42.7125L265.933 43.2875L273.757 17.2235L271.842 16.6485ZM264.975 42H259.071V44H264.975V42ZM299.749 41.944L299.256 42.814L299.265 42.8189L299.273 42.8235L299.749 41.944ZM295.189 37.528L296.045 37.0113L295.189 37.528ZM295.189 25.096L294.337 24.5727L295.189 25.096ZM299.749 20.776L300.231 21.6523L300.242 21.646L299.749 20.776ZM317.365 25.096L316.509 25.6127L316.513 25.6193L317.365 25.096ZM317.365 37.528L318.221 38.0447V38.0447L317.365 37.528ZM312.805 41.944L313.287 42.8203L313.298 42.814L312.805 41.944ZM309.061 36.184L309.55 37.0565L309.563 37.0492L309.576 37.0415L309.061 36.184ZM310.885 34.216L309.997 33.7557L309.994 33.7622L309.991 33.7688L310.885 34.216ZM310.885 28.456L310.005 28.9301L310.009 28.9374L310.013 28.9446L310.885 28.456ZM309.013 26.536L308.483 27.384L308.504 27.3967L308.525 27.4085L309.013 26.536ZM303.541 26.536L304.03 27.4085L304.043 27.4012L304.056 27.3935L303.541 26.536ZM301.669 28.456L302.55 28.9301L301.669 28.456ZM301.669 34.216L300.781 34.6763L300.785 34.6832L300.789 34.6901L301.669 34.216ZM303.541 36.184L303.027 37.0415L303.039 37.0492L303.053 37.0565L303.541 36.184ZM306.277 42.528C304.029 42.528 302.019 42.035 300.225 41.0645L299.273 42.8235C301.383 43.965 303.725 44.528 306.277 44.528V42.528ZM300.242 41.074C298.469 40.069 297.075 38.7176 296.045 37.0113L294.333 38.0447C295.543 40.0504 297.19 41.643 299.256 42.814L300.242 41.074ZM296.045 37.0113C295.025 35.3211 294.509 33.4218 294.509 31.288H292.509C292.509 33.7622 293.113 36.0229 294.333 38.0447L296.045 37.0113ZM294.509 31.288C294.509 29.1541 295.025 27.2738 296.041 25.6193L294.337 24.5727C293.113 26.5662 292.509 28.8139 292.509 31.288H294.509ZM296.041 25.6193C297.068 23.9467 298.459 22.6267 300.231 21.6522L299.267 19.8998C297.199 21.0373 295.55 22.5973 294.337 24.5727L296.041 25.6193ZM300.242 21.646C301.997 20.6517 304 20.144 306.277 20.144V18.144C303.69 18.144 301.341 18.7243 299.256 19.906L300.242 21.646ZM306.277 20.144C308.56 20.144 310.567 20.6381 312.323 21.6042L313.287 19.8518C311.204 18.7059 308.859 18.144 306.277 18.144V20.144ZM312.323 21.6042C314.091 22.5764 315.481 23.9091 316.509 25.6127L318.221 24.5793C317.009 22.5709 315.36 20.9916 313.287 19.8518L312.323 21.6042ZM316.513 25.6193C317.529 27.2738 318.045 29.1541 318.045 31.288H320.045C320.045 28.8139 319.441 26.5662 318.217 24.5727L316.513 25.6193ZM318.045 31.288C318.045 33.4218 317.529 35.3211 316.509 37.0113L318.221 38.0447C319.441 36.0229 320.045 33.7622 320.045 31.288H318.045ZM316.509 37.0113C315.479 38.7176 314.086 40.069 312.312 41.074L313.298 42.814C315.365 41.643 317.011 40.0504 318.221 38.0447L316.509 37.0113ZM312.323 41.0678C310.567 42.0339 308.56 42.528 306.277 42.528V44.528C308.859 44.528 311.204 43.9661 313.287 42.8202L312.323 41.0678ZM306.277 37.856C307.478 37.856 308.579 37.6001 309.55 37.0565L308.573 35.3115C307.943 35.6639 307.188 35.856 306.277 35.856V37.856ZM309.576 37.0415C310.538 36.464 311.278 35.6659 311.78 34.6632L309.991 33.7688C309.66 34.4301 309.184 34.944 308.547 35.3265L309.576 37.0415ZM311.773 34.6763C312.303 33.654 312.557 32.5171 312.557 31.288H310.557C310.557 32.2349 310.363 33.05 309.997 33.7557L311.773 34.6763ZM312.557 31.288C312.557 30.0609 312.304 28.9423 311.758 27.9674L310.013 28.9446C310.363 29.5697 310.557 30.3391 310.557 31.288H312.557ZM311.766 27.9819C311.23 26.988 310.473 26.2073 309.502 25.6635L308.525 27.4085C309.153 27.7607 309.644 28.26 310.005 28.9301L311.766 27.9819ZM309.543 25.688C308.591 25.0931 307.489 24.816 306.277 24.816V26.816C307.177 26.816 307.899 27.0189 308.483 27.384L309.543 25.688ZM306.277 24.816C305.09 24.816 303.997 25.0963 303.027 25.6785L304.056 27.3935C304.685 27.0157 305.416 26.816 306.277 26.816V24.816ZM303.053 25.6635C302.081 26.2073 301.324 26.988 300.789 27.9819L302.55 28.9301C302.91 28.26 303.401 27.7607 304.03 27.4085L303.053 25.6635ZM300.789 27.9819C300.251 28.9803 299.997 30.1078 299.997 31.336H301.997C301.997 30.3882 302.191 29.5957 302.55 28.9301L300.789 27.9819ZM299.997 31.336C299.997 32.5383 300.253 33.6582 300.781 34.6763L302.557 33.7557C302.189 33.0458 301.997 32.2457 301.997 31.336H299.997ZM300.789 34.6901C301.321 35.6783 302.07 36.4677 303.027 37.0415L304.056 35.3265C303.412 34.9403 302.913 34.4177 302.55 33.7419L300.789 34.6901ZM303.053 37.0565C304.019 37.5975 305.102 37.856 306.277 37.856V35.856C305.404 35.856 304.664 35.6665 304.03 35.3115L303.053 37.0565ZM322.701 43H321.701V44H322.701V43ZM322.701 19.672V18.672H321.701V19.672H322.701ZM330.045 19.672H331.045V18.672H330.045V19.672ZM330.045 43V44H331.045V43H330.045ZM330.045 30.184L329.43 30.972L331.045 32.2342V30.184H330.045ZM326.973 27.784L325.997 27.5659L325.86 28.1828L326.358 28.572L326.973 27.784ZM330.045 21.448L330.768 22.1396L330.045 21.448ZM338.973 19.72L338.584 20.641L338.605 20.6498L338.626 20.6577L338.973 19.72ZM341.229 21.256L342.014 21.8765L342.54 21.2112L341.969 20.5833L341.229 21.256ZM336.861 26.776L336.121 27.4487L336.914 28.3207L337.646 27.3965L336.861 26.776ZM335.661 25.96L335.29 26.8885L335.661 25.96ZM331.101 26.824L330.379 26.1321L330.379 26.1328L331.101 26.824ZM323.701 43V19.672H321.701V43H323.701ZM322.701 20.672H330.045V18.672H322.701V20.672ZM329.045 19.672V43H331.045V19.672H329.045ZM330.045 42H322.701V44H330.045V42ZM330.661 29.396L327.589 26.996L326.358 28.572L329.43 30.972L330.661 29.396ZM327.949 28.0021C328.531 25.4017 329.49 23.4744 330.768 22.1396L329.323 20.7564C327.721 22.4296 326.632 24.7263 325.997 27.5659L327.949 28.0021ZM330.768 22.1396C331.977 20.8762 333.691 20.192 336.045 20.192V18.192C333.28 18.192 330.993 19.0118 329.323 20.7564L330.768 22.1396ZM336.045 20.192C337.063 20.192 337.901 20.352 338.584 20.641L339.363 18.799C338.382 18.384 337.268 18.192 336.045 18.192V20.192ZM338.626 20.6577C339.335 20.9203 339.954 21.3392 340.489 21.9287L341.969 20.5833C341.225 19.7648 340.34 19.1597 339.321 18.7822L338.626 20.6577ZM340.445 20.6355L336.077 26.1555L337.646 27.3965L342.014 21.8765L340.445 20.6355ZM337.601 26.1033C337.171 25.6298 336.641 25.2748 336.033 25.0315L335.29 26.8885C335.642 27.0292 335.912 27.2182 336.121 27.4487L337.601 26.1033ZM336.033 25.0315C335.416 24.7847 334.743 24.672 334.029 24.672V26.672C334.532 26.672 334.947 26.7513 335.29 26.8885L336.033 25.0315ZM334.029 24.672C332.583 24.672 331.332 25.1385 330.379 26.1321L331.823 27.5159C332.343 26.9735 333.043 26.672 334.029 26.672V24.672ZM330.379 26.1328C329.428 27.1271 329.045 28.5437 329.045 30.184H331.045C331.045 28.8163 331.367 27.9929 331.824 27.5152L330.379 26.1328ZM358.114 43L357.285 43.5592L357.582 44H358.114V43ZM349.954 30.904L349.143 30.3185L348.734 30.8845L349.125 31.4632L349.954 30.904ZM358.066 19.672V18.672H357.554L357.255 19.0865L358.066 19.672ZM366.274 19.672L367.064 20.2849L368.315 18.672H366.274V19.672ZM356.482 32.296L355.485 32.2169L355.22 35.5542L357.272 32.9089L356.482 32.296ZM356.722 29.272L357.529 28.682L355.938 26.5049L355.725 29.1929L356.722 29.272ZM366.754 43V44H368.723L367.561 42.41L366.754 43ZM343.186 43H342.186V44H343.186V43ZM343.186 8.152V7.152H342.186V8.152H343.186ZM350.53 8.152H351.53V7.152H350.53V8.152ZM350.53 43V44H351.53V43H350.53ZM358.943 42.4408L350.783 30.3448L349.125 31.4632L357.285 43.5592L358.943 42.4408ZM350.764 31.4895L358.876 20.2575L357.255 19.0865L349.143 30.3185L350.764 31.4895ZM358.066 20.672H366.274V18.672H358.066V20.672ZM365.484 19.0591L355.692 31.6831L357.272 32.9089L367.064 20.2849L365.484 19.0591ZM357.479 32.3751L357.719 29.3511L355.725 29.1929L355.485 32.2169L357.479 32.3751ZM355.914 29.862L365.946 43.59L367.561 42.41L357.529 28.682L355.914 29.862ZM366.754 42H358.114V44H366.754V42ZM344.186 43V8.152H342.186V43H344.186ZM343.186 9.152H350.53V7.152H343.186V9.152ZM349.53 8.152V43H351.53V8.152H349.53ZM350.53 42H343.186V44H350.53V42ZM372.445 43.048L372.186 44.0139L372.192 44.0154L372.445 43.048ZM368.75 41.56L368.235 42.4175L368.249 42.4261L368.264 42.4342L368.75 41.56ZM365.87 39.256L365.158 38.5529L364.486 39.2334L365.136 39.9354L365.87 39.256ZM370.046 35.032L370.78 34.3537L370.07 33.5845L369.334 34.3289L370.046 35.032ZM372.781 37L372.368 37.9104L372.379 37.9156L372.391 37.9206L372.781 37ZM378.206 37.288L377.735 36.4056L377.722 36.4125L377.709 36.4198L378.206 37.288ZM378.061 34.936L377.554 35.7979L377.584 35.8152L377.614 35.8304L378.061 34.936ZM375.949 34.12L375.665 35.0788L375.682 35.0837L375.699 35.088L375.949 34.12ZM370.478 32.104L370.987 31.2437L370.478 32.104ZM368.366 29.992L367.503 30.4977L367.507 30.5044L367.511 30.511L368.366 29.992ZM368.702 22.6L369.519 23.1767L369.526 23.1655L368.702 22.6ZM371.966 19.96L371.552 19.0496L371.966 19.96ZM382.382 20.056L381.992 20.977L382.002 20.9814L382.013 20.9857L382.382 20.056ZM386.509 23.08L387.221 23.7831L387.841 23.1558L387.296 22.4622L386.509 23.08ZM382.333 27.304L381.572 27.9525L382.279 28.7818L383.045 28.0071L382.333 27.304ZM379.837 25.48L379.472 26.4108L379.483 26.415L379.837 25.48ZM375.326 25.336L375.8 26.2165L375.825 26.2028L375.85 26.1877L375.326 25.336ZM377.629 28.264L377.379 29.232L377.629 28.264ZM380.366 29.08L380.682 28.1313L380.366 29.08ZM383.102 30.376L383.634 29.5298L383.102 30.376ZM385.214 32.584L384.351 33.0897L384.355 33.0964L384.359 33.103L385.214 32.584ZM383.438 41.56L382.824 40.7706L382.816 40.7763L383.438 41.56ZM376.526 42.576C375.236 42.576 373.961 42.4112 372.699 42.0806L372.192 44.0154C373.618 44.3888 375.063 44.576 376.526 44.576V42.576ZM372.705 42.0822C371.469 41.7507 370.314 41.2849 369.235 40.6858L368.264 42.4342C369.49 43.1151 370.798 43.6413 372.186 44.0138L372.705 42.0822ZM369.264 40.7025C368.216 40.0739 367.332 39.364 366.603 38.5766L365.136 39.9354C366.007 40.876 367.043 41.7021 368.235 42.4175L369.264 40.7025ZM366.581 39.9591L370.757 35.7351L369.334 34.3289L365.158 38.5529L366.581 39.9591ZM369.311 35.7103C370.171 36.6427 371.193 37.3766 372.368 37.9104L373.195 36.0896C372.258 35.6634 371.456 35.0853 370.78 34.3537L369.311 35.7103ZM372.391 37.9206C373.581 38.4254 374.867 38.672 376.237 38.672V36.672C375.112 36.672 374.094 36.4706 373.172 36.0794L372.391 37.9206ZM376.237 38.672C377.172 38.672 378.033 38.5386 378.702 38.1562L377.709 36.4198C377.482 36.5494 377.031 36.672 376.237 36.672V38.672ZM378.676 38.1704C379.399 37.785 379.926 37.1351 379.926 36.232H377.926C377.926 36.2537 377.923 36.2624 377.923 36.2627C377.923 36.2632 377.922 36.2634 377.922 36.2637C377.922 36.264 377.921 36.2656 377.919 36.2687C377.912 36.2793 377.871 36.3332 377.735 36.4056L378.676 38.1704ZM379.926 36.232C379.926 35.769 379.807 35.3193 379.542 34.9213C379.28 34.5296 378.915 34.2449 378.509 34.0416L377.614 35.8304C377.784 35.9151 377.851 35.9904 377.877 36.0307C377.9 36.0647 377.926 36.119 377.926 36.232H379.926ZM378.569 34.0741C377.919 33.692 377.12 33.3905 376.2 33.152L375.699 35.088C376.507 35.2975 377.116 35.54 377.554 35.7979L378.569 34.0741ZM376.234 33.1612C375.371 32.9056 374.46 32.6339 373.501 32.3462L372.926 34.2618C373.887 34.5501 374.8 34.8224 375.665 35.0788L376.234 33.1612ZM373.501 32.3462C372.619 32.0816 371.782 31.7144 370.987 31.2437L369.968 32.9643C370.901 33.5176 371.888 33.9504 372.926 34.2618L373.501 32.3462ZM370.987 31.2437C370.271 30.8191 369.683 30.235 369.22 29.473L367.511 30.511C368.136 31.541 368.956 32.3649 369.968 32.9643L370.987 31.2437ZM369.228 29.4863C368.798 28.752 368.549 27.7717 368.549 26.488H366.549C366.549 28.0203 366.845 29.376 367.503 30.4977L369.228 29.4863ZM368.549 26.488C368.549 25.1627 368.885 24.0746 369.518 23.1767L367.885 22.0233C366.982 23.3014 366.549 24.8053 366.549 26.488H368.549ZM369.526 23.1655C370.178 22.2157 371.114 21.4457 372.379 20.8704L371.552 19.0496C370.001 19.7543 368.761 20.7443 367.877 22.0345L369.526 23.1655ZM372.379 20.8704C373.632 20.301 375.133 20 376.91 20V18C374.91 18 373.115 18.339 371.552 19.0496L372.379 20.8704ZM376.91 20C378.773 20 380.463 20.33 381.992 20.977L382.771 19.135C380.972 18.374 379.014 18 376.91 18V20ZM382.013 20.9857C383.556 21.5971 384.784 22.5023 385.723 23.6978L387.296 22.4622C386.123 20.9697 384.599 19.8589 382.75 19.1263L382.013 20.9857ZM385.798 22.3769L381.622 26.6009L383.045 28.0071L387.221 23.7831L385.798 22.3769ZM383.095 26.6555C382.265 25.6819 381.299 24.9649 380.192 24.545L379.483 26.415C380.232 26.6991 380.93 27.1981 381.572 27.9525L383.095 26.6555ZM380.203 24.5492C379.204 24.1567 378.2 23.952 377.198 23.952V25.952C377.923 25.952 378.679 26.0993 379.472 26.4108L380.203 24.5492ZM377.198 23.952C376.295 23.952 375.45 24.0849 374.801 24.4843L375.85 26.1877C376.033 26.0751 376.436 25.952 377.198 25.952V23.952ZM374.851 24.4555C374.519 24.6343 374.22 24.886 374.007 25.2296C373.793 25.5761 373.702 25.9595 373.702 26.344H375.702C375.702 26.3096 375.705 26.2915 375.707 26.2854C375.708 26.2801 375.709 26.2804 375.708 26.2824C375.703 26.29 375.716 26.2617 375.8 26.2165L374.851 24.4555ZM373.702 26.344C373.702 27.3029 374.287 27.9759 375.05 28.3798L375.985 26.6122C375.811 26.5197 375.744 26.445 375.722 26.414C375.708 26.3945 375.702 26.3814 375.702 26.344H373.702ZM375.05 28.3798C375.686 28.7165 376.47 28.9964 377.379 29.232L377.88 27.296C377.061 27.0836 376.437 26.8515 375.985 26.6122L375.05 28.3798ZM377.379 29.232C378.218 29.4496 379.108 29.7149 380.049 30.0287L380.682 28.1313C379.703 27.8051 378.769 27.5264 377.88 27.296L377.379 29.232ZM380.049 30.0287C380.933 30.3231 381.772 30.7206 382.569 31.2222L383.634 29.5298C382.703 28.9434 381.718 28.4769 380.682 28.1313L380.049 30.0287ZM382.569 31.2222C383.29 31.6762 383.883 32.2924 384.351 33.0897L386.076 32.0783C385.456 31.0196 384.641 30.1638 383.634 29.5298L382.569 31.2222ZM384.359 33.103C384.777 33.7916 385.03 34.7765 385.03 36.136H387.03C387.03 34.5515 386.738 33.1684 386.068 32.065L384.359 33.103ZM385.03 36.136C385.03 38.113 384.297 39.6243 382.824 40.7706L384.051 42.3494C386.034 40.8077 387.03 38.703 387.03 36.136H385.03ZM382.816 40.7763C381.35 41.9386 379.29 42.576 376.526 42.576V44.576C379.585 44.576 382.133 43.8694 384.059 42.3437L382.816 40.7763Z" fill="#444444" mask="url(#path-1-outside-1_1_8903)"/>
</svg>
