<svg width="1034" height="136" viewBox="0 0 1034 136" fill="none" xmlns="http://www.w3.org/2000/svg">
<mask id="path-1-outside-1_1_8315" maskUnits="userSpaceOnUse" x="7" y="21" width="1026" height="97" fill="black">
<rect fill="white" x="7" y="21" width="1026" height="97"/>
<path d="M8.704 115V24.632H28.8V115H8.704ZM64.64 115V24.632H84.864V115H64.64ZM20.736 77.24V59.832H71.296V77.24H20.736ZM130.364 116.408C123.964 116.408 118.161 115 112.956 112.184C107.836 109.283 103.783 105.357 100.796 100.408C97.8093 95.4587 96.316 89.912 96.316 83.768C96.316 77.624 97.8093 72.12 100.796 67.256C103.783 62.392 107.836 58.552 112.956 55.736C118.076 52.8347 123.879 51.384 130.364 51.384C136.849 51.384 142.652 52.792 147.772 55.608C152.892 58.424 156.945 62.3067 159.932 67.256C162.919 72.12 164.412 77.624 164.412 83.768C164.412 89.912 162.919 95.4587 159.932 100.408C156.945 105.357 152.892 109.283 147.772 112.184C142.652 115 136.849 116.408 130.364 116.408ZM130.364 98.616C133.18 98.616 135.655 98.0187 137.788 96.824C139.921 95.544 141.543 93.7947 142.652 91.576C143.847 89.272 144.444 86.6693 144.444 83.768C144.444 80.8667 143.847 78.3493 142.652 76.216C141.457 73.9973 139.793 72.2907 137.66 71.096C135.612 69.816 133.18 69.176 130.364 69.176C127.633 69.176 125.201 69.816 123.068 71.096C120.935 72.2907 119.271 73.9973 118.076 76.216C116.881 78.4347 116.284 80.9947 116.284 83.896C116.284 86.712 116.881 89.272 118.076 91.576C119.271 93.7947 120.935 95.544 123.068 96.824C125.201 98.0187 127.633 98.616 130.364 98.616ZM188.144 115L166.64 52.792H185.84L199.152 97.976L193.52 98.104L208.24 52.792H224.112L238.96 98.104L233.2 97.976L246.64 52.792H265.84L244.336 115H228.336L213.872 71.992H218.736L204.016 115H188.144ZM314.939 115V99.384H336.187C340.112 99.384 343.184 98.232 345.403 95.928C347.622 93.624 348.731 90.808 348.731 87.48C348.731 85.176 348.219 83.128 347.195 81.336C346.171 79.544 344.72 78.136 342.843 77.112C341.051 76.088 338.832 75.576 336.187 75.576H314.939V60.344H334.523C337.851 60.344 340.539 59.5333 342.587 57.912C344.635 56.2053 345.659 53.6453 345.659 50.232C345.659 46.904 344.635 44.4293 342.587 42.808C340.539 41.1013 337.851 40.248 334.523 40.248H314.939V24.632H338.363C344.166 24.632 349.072 25.6987 353.083 27.832C357.179 29.9653 360.294 32.824 362.427 36.408C364.56 39.992 365.627 43.96 365.627 48.312C365.627 53.8587 363.835 58.552 360.251 62.392C356.667 66.232 351.376 68.8773 344.379 70.328L344.891 63.544C352.486 64.9947 358.331 67.9387 362.427 72.376C366.608 76.8133 368.699 82.2747 368.699 88.76C368.699 93.7093 367.462 98.1893 364.987 102.2C362.598 106.125 359.099 109.24 354.491 111.544C349.968 113.848 344.507 115 338.107 115H314.939ZM299.579 115V24.632H319.419V115H299.579ZM407.435 116.408C401.718 116.408 396.64 115.256 392.203 112.952C387.851 110.563 384.438 107.32 381.963 103.224C379.488 99.0427 378.251 94.264 378.251 88.888V52.792H397.835V88.632C397.835 90.7653 398.176 92.6 398.859 94.136C399.627 95.672 400.736 96.8667 402.187 97.72C403.638 98.5733 405.387 99 407.435 99C410.336 99 412.64 98.104 414.347 96.312C416.054 94.4347 416.907 91.8747 416.907 88.632V52.792H436.491V88.76C436.491 94.2213 435.254 99.0427 432.779 103.224C430.304 107.32 426.891 110.563 422.539 112.952C418.187 115.256 413.152 116.408 407.435 116.408ZM475.283 116.28C469.395 116.28 464.147 114.872 459.539 112.056C455.016 109.24 451.432 105.4 448.787 100.536C446.227 95.672 444.947 90.1253 444.947 83.896C444.947 77.6667 446.227 72.12 448.787 67.256C451.432 62.392 455.016 58.552 459.539 55.736C464.147 52.92 469.395 51.512 475.283 51.512C479.55 51.512 483.39 52.3227 486.803 53.944C490.302 55.5653 493.16 57.8267 495.379 60.728C497.683 63.544 498.963 66.7867 499.219 70.456V96.696C498.963 100.365 497.726 103.693 495.507 106.68C493.288 109.581 490.43 111.928 486.931 113.72C483.432 115.427 479.55 116.28 475.283 116.28ZM478.739 98.616C481.555 98.616 483.987 98.0187 486.035 96.824C488.083 95.544 489.704 93.7947 490.899 91.576C492.094 89.3573 492.691 86.7973 492.691 83.896C492.691 80.9947 492.094 78.4773 490.899 76.344C489.79 74.1253 488.168 72.376 486.035 71.096C483.987 69.816 481.598 69.176 478.867 69.176C476.136 69.176 473.704 69.816 471.571 71.096C469.523 72.376 467.859 74.1253 466.579 76.344C465.384 78.5627 464.787 81.08 464.787 83.896C464.787 86.712 465.384 89.2293 466.579 91.448C467.774 93.6667 469.438 95.416 471.571 96.696C473.704 97.976 476.094 98.616 478.739 98.616ZM511.123 115H491.923V98.232L494.867 83.128L491.539 68.024V22.072H511.123V115ZM547.568 116.536C543.899 116.536 540.272 116.067 536.688 115.128C533.189 114.189 529.904 112.867 526.832 111.16C523.845 109.368 521.285 107.32 519.152 105.016L530.288 93.752C532.336 95.9707 534.768 97.72 537.584 99C540.4 100.195 543.472 100.792 546.8 100.792C549.104 100.792 550.853 100.451 552.048 99.768C553.328 99.0853 553.968 98.1467 553.968 96.952C553.968 95.416 553.2 94.264 551.664 93.496C550.213 92.6427 548.336 91.9173 546.032 91.32C543.728 90.6373 541.296 89.912 538.736 89.144C536.176 88.376 533.744 87.3093 531.44 85.944C529.136 84.5787 527.259 82.7013 525.808 80.312C524.357 77.8373 523.632 74.7227 523.632 70.968C523.632 66.9573 524.656 63.5013 526.704 60.6C528.752 57.6133 531.653 55.2667 535.408 53.56C539.163 51.8533 543.557 51 548.592 51C553.883 51 558.747 51.9387 563.184 53.816C567.707 55.608 571.376 58.296 574.192 61.88L563.056 73.144C561.093 70.84 558.875 69.2187 556.4 68.28C554.011 67.3413 551.664 66.872 549.36 66.872C547.141 66.872 545.477 67.2133 544.368 67.896C543.259 68.4933 542.704 69.3893 542.704 70.584C542.704 71.864 543.429 72.888 544.88 73.656C546.331 74.424 548.208 75.1067 550.512 75.704C552.816 76.3013 555.248 77.0267 557.808 77.88C560.368 78.7333 562.8 79.8853 565.104 81.336C567.408 82.7867 569.285 84.7493 570.736 87.224C572.187 89.6133 572.912 92.7707 572.912 96.696C572.912 102.755 570.608 107.576 566 111.16C561.477 114.744 555.333 116.536 547.568 116.536ZM606.193 116.536C602.524 116.536 598.897 116.067 595.313 115.128C591.814 114.189 588.529 112.867 585.457 111.16C582.47 109.368 579.91 107.32 577.777 105.016L588.913 93.752C590.961 95.9707 593.393 97.72 596.209 99C599.025 100.195 602.097 100.792 605.425 100.792C607.729 100.792 609.478 100.451 610.673 99.768C611.953 99.0853 612.593 98.1467 612.593 96.952C612.593 95.416 611.825 94.264 610.289 93.496C608.838 92.6427 606.961 91.9173 604.657 91.32C602.353 90.6373 599.921 89.912 597.361 89.144C594.801 88.376 592.369 87.3093 590.065 85.944C587.761 84.5787 585.884 82.7013 584.433 80.312C582.982 77.8373 582.257 74.7227 582.257 70.968C582.257 66.9573 583.281 63.5013 585.329 60.6C587.377 57.6133 590.278 55.2667 594.033 53.56C597.788 51.8533 602.182 51 607.217 51C612.508 51 617.372 51.9387 621.809 53.816C626.332 55.608 630.001 58.296 632.817 61.88L621.681 73.144C619.718 70.84 617.5 69.2187 615.025 68.28C612.636 67.3413 610.289 66.872 607.985 66.872C605.766 66.872 604.102 67.2133 602.993 67.896C601.884 68.4933 601.329 69.3893 601.329 70.584C601.329 71.864 602.054 72.888 603.505 73.656C604.956 74.424 606.833 75.1067 609.137 75.704C611.441 76.3013 613.873 77.0267 616.433 77.88C618.993 78.7333 621.425 79.8853 623.729 81.336C626.033 82.7867 627.91 84.7493 629.361 87.224C630.812 89.6133 631.537 92.7707 631.537 96.696C631.537 102.755 629.233 107.576 624.625 111.16C620.102 114.744 613.958 116.536 606.193 116.536ZM690.857 115L661.801 24.632H681.769L703.017 94.136H695.209L715.945 24.632H731.689L752.425 94.136H744.745L765.865 24.632H785.705L756.649 115H740.905L720.041 45.496H727.465L706.601 115H690.857ZM816.739 116.408C810.339 116.408 804.536 115 799.331 112.184C794.211 109.283 790.158 105.357 787.171 100.408C784.184 95.4587 782.691 89.912 782.691 83.768C782.691 77.624 784.184 72.12 787.171 67.256C790.158 62.392 794.211 58.552 799.331 55.736C804.451 52.8347 810.254 51.384 816.739 51.384C823.224 51.384 829.027 52.792 834.147 55.608C839.267 58.424 843.32 62.3067 846.307 67.256C849.294 72.12 850.787 77.624 850.787 83.768C850.787 89.912 849.294 95.4587 846.307 100.408C843.32 105.357 839.267 109.283 834.147 112.184C829.027 115 823.224 116.408 816.739 116.408ZM816.739 98.616C819.555 98.616 822.03 98.0187 824.163 96.824C826.296 95.544 827.918 93.7947 829.027 91.576C830.222 89.272 830.819 86.6693 830.819 83.768C830.819 80.8667 830.222 78.3493 829.027 76.216C827.832 73.9973 826.168 72.2907 824.035 71.096C821.987 69.816 819.555 69.176 816.739 69.176C814.008 69.176 811.576 69.816 809.443 71.096C807.31 72.2907 805.646 73.9973 804.451 76.216C803.256 78.4347 802.659 80.9947 802.659 83.896C802.659 86.712 803.256 89.272 804.451 91.576C805.646 93.7947 807.31 95.544 809.443 96.824C811.576 98.0187 814.008 98.616 816.739 98.616ZM860.537 115V52.792H880.121V115H860.537ZM880.121 80.824L871.929 74.424C873.55 67.1707 876.281 61.5387 880.121 57.528C883.961 53.5173 889.294 51.512 896.121 51.512C899.108 51.512 901.71 51.9813 903.929 52.92C906.233 53.7733 908.238 55.1387 909.945 57.016L898.297 71.736C897.444 70.7973 896.377 70.072 895.097 69.56C893.817 69.048 892.366 68.792 890.745 68.792C887.502 68.792 884.9 69.816 882.937 71.864C881.06 73.8267 880.121 76.8133 880.121 80.824ZM954.97 115L933.21 82.744L954.842 52.792H976.73L950.618 86.456L951.258 78.392L978.01 115H954.97ZM915.162 115V22.072H934.746V115H915.162ZM1004.07 116.536C1000.4 116.536 996.772 116.067 993.188 115.128C989.689 114.189 986.404 112.867 983.332 111.16C980.345 109.368 977.785 107.32 975.652 105.016L986.788 93.752C988.836 95.9707 991.268 97.72 994.084 99C996.9 100.195 999.972 100.792 1003.3 100.792C1005.6 100.792 1007.35 100.451 1008.55 99.768C1009.83 99.0853 1010.47 98.1467 1010.47 96.952C1010.47 95.416 1009.7 94.264 1008.16 93.496C1006.71 92.6427 1004.84 91.9173 1002.53 91.32C1000.23 90.6373 997.796 89.912 995.236 89.144C992.676 88.376 990.244 87.3093 987.94 85.944C985.636 84.5787 983.759 82.7013 982.308 80.312C980.857 77.8373 980.132 74.7227 980.132 70.968C980.132 66.9573 981.156 63.5013 983.204 60.6C985.252 57.6133 988.153 55.2667 991.908 53.56C995.663 51.8533 1000.06 51 1005.09 51C1010.38 51 1015.25 51.9387 1019.68 53.816C1024.21 55.608 1027.88 58.296 1030.69 61.88L1019.56 73.144C1017.59 70.84 1015.37 69.2187 1012.9 68.28C1010.51 67.3413 1008.16 66.872 1005.86 66.872C1003.64 66.872 1001.98 67.2133 1000.87 67.896C999.759 68.4933 999.204 69.3893 999.204 70.584C999.204 71.864 999.929 72.888 1001.38 73.656C1002.83 74.424 1004.71 75.1067 1007.01 75.704C1009.32 76.3013 1011.75 77.0267 1014.31 77.88C1016.87 78.7333 1019.3 79.8853 1021.6 81.336C1023.91 82.7867 1025.79 84.7493 1027.24 87.224C1028.69 89.6133 1029.41 92.7707 1029.41 96.696C1029.41 102.755 1027.11 107.576 1022.5 111.16C1017.98 114.744 1011.83 116.536 1004.07 116.536Z"/>
</mask>
<path d="M8.704 115H7.704V116H8.704V115ZM8.704 24.632V23.632H7.704V24.632H8.704ZM28.8 24.632H29.8V23.632H28.8V24.632ZM28.8 115V116H29.8V115H28.8ZM64.64 115H63.64V116H64.64V115ZM64.64 24.632V23.632H63.64V24.632H64.64ZM84.864 24.632H85.864V23.632H84.864V24.632ZM84.864 115V116H85.864V115H84.864ZM20.736 77.24H19.736V78.24H20.736V77.24ZM20.736 59.832V58.832H19.736V59.832H20.736ZM71.296 59.832H72.296V58.832H71.296V59.832ZM71.296 77.24V78.24H72.296V77.24H71.296ZM9.704 115V24.632H7.704V115H9.704ZM8.704 25.632H28.8V23.632H8.704V25.632ZM27.8 24.632V115H29.8V24.632H27.8ZM28.8 114H8.704V116H28.8V114ZM65.64 115V24.632H63.64V115H65.64ZM64.64 25.632H84.864V23.632H64.64V25.632ZM83.864 24.632V115H85.864V24.632H83.864ZM84.864 114H64.64V116H84.864V114ZM21.736 77.24V59.832H19.736V77.24H21.736ZM20.736 60.832H71.296V58.832H20.736V60.832ZM70.296 59.832V77.24H72.296V59.832H70.296ZM71.296 76.24H20.736V78.24H71.296V76.24ZM112.956 112.184L112.463 113.054L112.472 113.059L112.48 113.064L112.956 112.184ZM100.796 100.408L101.652 99.8913L100.796 100.408ZM100.796 67.256L99.9438 66.7327L100.796 67.256ZM112.956 55.736L113.438 56.6123L113.449 56.606L112.956 55.736ZM159.932 67.256L159.076 67.7727L159.08 67.7793L159.932 67.256ZM159.932 100.408L160.788 100.925L159.932 100.408ZM147.772 112.184L148.254 113.06L148.265 113.054L147.772 112.184ZM137.788 96.824L138.277 97.6965L138.29 97.6892L138.302 97.6815L137.788 96.824ZM142.652 91.576L141.764 91.1157L141.761 91.1222L141.758 91.1288L142.652 91.576ZM142.652 76.216L141.772 76.6901L141.775 76.6974L141.779 76.7046L142.652 76.216ZM137.66 71.096L137.13 71.944L137.15 71.9567L137.171 71.9685L137.66 71.096ZM123.068 71.096L123.557 71.9685L123.57 71.9612L123.582 71.9535L123.068 71.096ZM118.076 76.216L118.956 76.6901L118.076 76.216ZM118.076 91.576L117.188 92.0363L117.192 92.0432L117.196 92.0501L118.076 91.576ZM123.068 96.824L122.554 97.6815L122.566 97.6892L122.579 97.6965L123.068 96.824ZM130.364 115.408C124.116 115.408 118.479 114.035 113.432 111.304L112.48 113.064C117.843 115.965 123.812 117.408 130.364 117.408V115.408ZM113.449 111.314C108.476 108.496 104.548 104.691 101.652 99.8913L99.9398 100.925C103.017 106.024 107.196 110.07 112.463 113.054L113.449 111.314ZM101.652 99.8913C98.7656 95.1078 97.316 89.7418 97.316 83.768H95.316C95.316 90.0822 96.8531 95.8095 99.9398 100.925L101.652 99.8913ZM97.316 83.768C97.316 77.7941 98.7656 72.4738 101.648 67.7793L99.9438 66.7327C96.8531 71.7662 95.316 77.4539 95.316 83.768H97.316ZM101.648 67.7793C104.542 63.0667 108.466 59.3467 113.438 56.6122L112.474 54.8598C107.206 57.7573 103.023 61.7173 99.9438 66.7327L101.648 67.7793ZM113.449 56.606C118.404 53.7984 124.033 52.384 130.364 52.384V50.384C123.724 50.384 117.748 51.871 112.463 54.866L113.449 56.606ZM130.364 52.384C136.7 52.384 142.333 53.7581 147.29 56.4842L148.254 54.7318C142.971 51.8259 136.999 50.384 130.364 50.384V52.384ZM147.29 56.4842C152.258 59.2164 156.181 62.9757 159.076 67.7727L160.788 66.7393C157.71 61.6376 153.526 57.6316 148.254 54.7318L147.29 56.4842ZM159.08 67.7793C161.962 72.4738 163.412 77.7941 163.412 83.768H165.412C165.412 77.4539 163.875 71.7662 160.784 66.7327L159.08 67.7793ZM163.412 83.768C163.412 89.7418 161.962 95.1078 159.076 99.8913L160.788 100.925C163.875 95.8095 165.412 90.0822 165.412 83.768H163.412ZM159.076 99.8913C156.18 104.691 152.252 108.496 147.279 111.314L148.265 113.054C153.532 110.07 157.711 106.024 160.788 100.925L159.076 99.8913ZM147.29 111.308C142.333 114.034 136.7 115.408 130.364 115.408V117.408C136.999 117.408 142.971 115.966 148.254 113.06L147.29 111.308ZM130.364 99.616C133.325 99.616 135.973 98.9867 138.277 97.6965L137.299 95.9515C135.337 97.0506 133.035 97.616 130.364 97.616V99.616ZM138.302 97.6815C140.598 96.3039 142.352 94.4125 143.546 92.0232L141.758 91.1288C140.734 93.1768 139.244 94.784 137.274 95.9665L138.302 97.6815ZM143.54 92.0363C144.817 89.574 145.444 86.8104 145.444 83.768H143.444C143.444 86.5283 142.877 88.97 141.764 91.1157L143.54 92.0363ZM145.444 83.768C145.444 80.7276 144.817 78.0356 143.525 75.7274L141.779 76.7046C142.876 78.663 143.444 81.0058 143.444 83.768H145.444ZM143.532 75.7419C142.251 73.3613 140.453 71.514 138.149 70.2235L137.171 71.9685C139.134 73.0674 140.664 74.6334 141.772 76.6901L143.532 75.7419ZM138.19 70.248C135.958 68.8531 133.336 68.176 130.364 68.176V70.176C133.024 70.176 135.266 70.7789 137.13 71.944L138.19 70.248ZM130.364 68.176C127.47 68.176 124.857 68.8563 122.554 70.2385L123.582 71.9535C125.545 70.7757 127.796 70.176 130.364 70.176V68.176ZM122.579 70.2235C120.275 71.514 118.477 73.3613 117.196 75.7419L118.956 76.6901C120.064 74.6334 121.594 73.0674 123.557 71.9685L122.579 70.2235ZM117.196 75.7419C115.911 78.127 115.284 80.8544 115.284 83.896H117.284C117.284 81.1349 117.851 78.7423 118.956 76.6901L117.196 75.7419ZM115.284 83.896C115.284 86.8583 115.914 89.5782 117.188 92.0363L118.964 91.1157C117.849 88.9658 117.284 86.5657 117.284 83.896H115.284ZM117.196 92.0501C118.474 94.425 120.264 96.3077 122.554 97.6815L123.582 95.9665C121.605 94.7803 120.067 93.1643 118.956 91.1019L117.196 92.0501ZM122.579 97.6965C124.879 98.9842 127.483 99.616 130.364 99.616V97.616C127.784 97.616 125.524 97.0531 123.557 95.9515L122.579 97.6965ZM188.144 115L187.199 115.327L187.432 116H188.144V115ZM166.64 52.792V51.792H165.236L165.695 53.1187L166.64 52.792ZM185.84 52.792L186.799 52.5094L186.588 51.792H185.84V52.792ZM199.152 97.976L199.175 98.9757L200.48 98.9461L200.111 97.6934L199.152 97.976ZM193.52 98.104L192.569 97.795L192.133 99.1358L193.543 99.1037L193.52 98.104ZM208.24 52.792V51.792H207.513L207.289 52.483L208.24 52.792ZM224.112 52.792L225.062 52.4806L224.837 51.792H224.112V52.792ZM238.96 98.104L238.938 99.1038L240.35 99.1351L239.91 97.7926L238.96 98.104ZM233.2 97.976L232.242 97.6909L231.868 98.9466L233.178 98.9758L233.2 97.976ZM246.64 52.792V51.792H245.894L245.682 52.5069L246.64 52.792ZM265.84 52.792L266.785 53.1187L267.244 51.792H265.84V52.792ZM244.336 115V116H245.048L245.281 115.327L244.336 115ZM228.336 115L227.388 115.319L227.617 116H228.336V115ZM213.872 71.992V70.992H212.481L212.924 72.3108L213.872 71.992ZM218.736 71.992L219.682 72.3158L220.135 70.992H218.736V71.992ZM204.016 115V116H204.731L204.962 115.324L204.016 115ZM189.089 114.673L167.585 52.4653L165.695 53.1187L187.199 115.327L189.089 114.673ZM166.64 53.792H185.84V51.792H166.64V53.792ZM184.881 53.0746L198.193 98.2586L200.111 97.6934L186.799 52.5094L184.881 53.0746ZM199.129 96.9763L193.497 97.1043L193.543 99.1037L199.175 98.9757L199.129 96.9763ZM194.471 98.413L209.191 53.101L207.289 52.483L192.569 97.795L194.471 98.413ZM208.24 53.792H224.112V51.792H208.24V53.792ZM223.162 53.1034L238.01 98.4154L239.91 97.7926L225.062 52.4806L223.162 53.1034ZM238.982 97.1042L233.222 96.9762L233.178 98.9758L238.938 99.1038L238.982 97.1042ZM234.159 98.2611L247.599 53.0771L245.682 52.5069L232.242 97.6909L234.159 98.2611ZM246.64 53.792H265.84V51.792H246.64V53.792ZM264.895 52.4653L243.391 114.673L245.281 115.327L266.785 53.1187L264.895 52.4653ZM244.336 114H228.336V116H244.336V114ZM229.284 114.681L214.82 71.6732L212.924 72.3108L227.388 115.319L229.284 114.681ZM213.872 72.992H218.736V70.992H213.872V72.992ZM217.79 71.6682L203.07 114.676L204.962 115.324L219.682 72.3158L217.79 71.6682ZM204.016 114H188.144V116H204.016V114ZM314.939 115H313.939V116H314.939V115ZM314.939 99.384V98.384H313.939V99.384H314.939ZM345.403 95.928L346.123 96.6216L345.403 95.928ZM342.843 77.112L342.347 77.9802L342.355 77.9852L342.364 77.9899L342.843 77.112ZM314.939 75.576H313.939V76.576H314.939V75.576ZM314.939 60.344V59.344H313.939V60.344H314.939ZM342.587 57.912L343.208 58.696L343.218 58.6883L343.227 58.6802L342.587 57.912ZM342.587 42.808L341.947 43.5762L341.956 43.5843L341.966 43.592L342.587 42.808ZM314.939 40.248H313.939V41.248H314.939V40.248ZM314.939 24.632V23.632H313.939V24.632H314.939ZM353.083 27.832L352.613 28.7149L352.621 28.7189L353.083 27.832ZM362.427 36.408L361.568 36.9195V36.9195L362.427 36.408ZM360.251 62.392L360.982 63.0743L360.251 62.392ZM344.379 70.328L343.382 70.2527L343.282 71.5767L344.582 71.3072L344.379 70.328ZM344.891 63.544L345.079 62.5618L343.978 62.3516L343.894 63.4687L344.891 63.544ZM362.427 72.376L361.692 73.0543L361.699 73.0618L362.427 72.376ZM364.987 102.2L364.136 101.675L364.133 101.68L364.987 102.2ZM354.491 111.544L354.044 110.65L354.037 110.653L354.491 111.544ZM299.579 115H298.579V116H299.579V115ZM299.579 24.632V23.632H298.579V24.632H299.579ZM319.419 24.632H320.419V23.632H319.419V24.632ZM319.419 115V116H320.419V115H319.419ZM315.939 115V99.384H313.939V115H315.939ZM314.939 100.384H336.187V98.384H314.939V100.384ZM336.187 100.384C340.318 100.384 343.675 99.1643 346.123 96.6216L344.683 95.2344C342.694 97.2997 339.907 98.384 336.187 98.384V100.384ZM346.123 96.6216C348.529 94.1231 349.731 91.0551 349.731 87.48H347.731C347.731 90.5609 346.714 93.1249 344.683 95.2344L346.123 96.6216ZM349.731 87.48C349.731 85.0227 349.183 82.8 348.063 80.8399L346.327 81.8321C347.255 83.456 347.731 85.3293 347.731 87.48H349.731ZM348.063 80.8399C346.944 78.881 345.356 77.3435 343.322 76.2341L342.364 77.9899C344.085 78.9285 345.398 80.207 346.327 81.8321L348.063 80.8399ZM343.339 76.2438C341.359 75.1124 338.958 74.576 336.187 74.576V76.576C338.706 76.576 340.743 77.0636 342.347 77.9802L343.339 76.2438ZM336.187 74.576H314.939V76.576H336.187V74.576ZM315.939 75.576V60.344H313.939V75.576H315.939ZM314.939 61.344H334.523V59.344H314.939V61.344ZM334.523 61.344C338.014 61.344 340.939 60.4917 343.208 58.696L341.966 57.128C340.139 58.5749 337.688 59.344 334.523 59.344V61.344ZM343.227 58.6802C345.564 56.7327 346.659 53.8523 346.659 50.232H344.659C344.659 53.4384 343.706 55.678 341.947 57.1438L343.227 58.6802ZM346.659 50.232C346.659 46.6898 345.559 43.8852 343.208 42.024L341.966 43.592C343.711 44.9734 344.659 47.1182 344.659 50.232H346.659ZM343.227 42.0398C340.958 40.1491 338.025 39.248 334.523 39.248V41.248C337.677 41.248 340.12 42.0536 341.947 43.5762L343.227 42.0398ZM334.523 39.248H314.939V41.248H334.523V39.248ZM315.939 40.248V24.632H313.939V40.248H315.939ZM314.939 25.632H338.363V23.632H314.939V25.632ZM338.363 25.632C344.046 25.632 348.782 26.6768 352.613 28.7149L353.553 26.9491C349.363 24.7205 344.285 23.632 338.363 23.632V25.632ZM352.621 28.7189C356.571 30.7759 359.539 33.5119 361.568 36.9195L363.286 35.8965C361.048 32.1361 357.787 29.1547 353.545 26.9451L352.621 28.7189ZM361.568 36.9195C363.605 40.3419 364.627 44.1319 364.627 48.312H366.627C366.627 43.7881 365.516 39.6421 363.286 35.8965L361.568 36.9195ZM364.627 48.312C364.627 53.621 362.921 58.0659 359.52 61.7097L360.982 63.0743C364.749 59.0381 366.627 54.0964 366.627 48.312H364.627ZM359.52 61.7097C356.12 65.3527 351.042 67.9253 344.176 69.3488L344.582 71.3072C351.71 69.8294 357.214 67.1113 360.982 63.0743L359.52 61.7097ZM345.376 70.4033L345.888 63.6193L343.894 63.4687L343.382 70.2527L345.376 70.4033ZM344.703 64.5262C352.147 65.9481 357.778 68.8134 361.692 73.0543L363.162 71.6977C358.884 67.0639 352.824 64.0413 345.079 62.5618L344.703 64.5262ZM361.699 73.0618C365.694 77.301 367.699 82.5118 367.699 88.76H369.699C369.699 82.0376 367.523 76.3257 363.155 71.6902L361.699 73.0618ZM367.699 88.76C367.699 93.5336 366.508 97.8302 364.136 101.675L365.838 102.725C368.415 98.5485 369.699 93.885 369.699 88.76H367.699ZM364.133 101.68C361.853 105.426 358.505 108.419 354.044 110.65L354.938 112.438C359.693 110.061 363.343 106.825 365.841 102.72L364.133 101.68ZM354.037 110.653C349.687 112.869 344.389 114 338.107 114V116C344.625 116 350.25 114.827 354.945 112.435L354.037 110.653ZM338.107 114H314.939V116H338.107V114ZM300.579 115V24.632H298.579V115H300.579ZM299.579 25.632H319.419V23.632H299.579V25.632ZM318.419 24.632V115H320.419V24.632H318.419ZM319.419 114H299.579V116H319.419V114ZM392.203 112.952L391.722 113.829L391.732 113.834L391.742 113.839L392.203 112.952ZM381.963 103.224L381.102 103.733L381.107 103.741L381.963 103.224ZM378.251 52.792V51.792H377.251V52.792H378.251ZM397.835 52.792H398.835V51.792H397.835V52.792ZM398.859 94.136L397.945 94.5421L397.954 94.5629L397.965 94.5832L398.859 94.136ZM402.187 97.72L402.694 96.8581L402.187 97.72ZM414.347 96.312L415.071 97.0017L415.079 96.9933L415.087 96.9847L414.347 96.312ZM416.907 52.792V51.792H415.907V52.792H416.907ZM436.491 52.792H437.491V51.792H436.491V52.792ZM432.779 103.224L433.635 103.741L433.64 103.733L432.779 103.224ZM422.539 112.952L423.007 113.836L423.014 113.832L423.02 113.829L422.539 112.952ZM407.435 115.408C401.855 115.408 396.94 114.285 392.664 112.065L391.742 113.839C396.341 116.227 401.58 117.408 407.435 117.408V115.408ZM392.684 112.075C388.481 109.768 385.199 106.646 382.819 102.707L381.107 103.741C383.676 107.994 387.221 111.358 391.722 113.829L392.684 112.075ZM382.824 102.715C380.45 98.7036 379.251 94.1044 379.251 88.888H377.251C377.251 94.4236 378.527 99.3817 381.102 103.733L382.824 102.715ZM379.251 88.888V52.792H377.251V88.888H379.251ZM378.251 53.792H397.835V51.792H378.251V53.792ZM396.835 52.792V88.632H398.835V52.792H396.835ZM396.835 88.632C396.835 90.8689 397.193 92.8488 397.945 94.5421L399.773 93.7299C399.16 92.3512 398.835 90.6618 398.835 88.632H396.835ZM397.965 94.5832C398.817 96.2882 400.059 97.6286 401.68 98.5819L402.694 96.8581C401.413 96.1048 400.437 95.0558 399.753 93.6888L397.965 94.5832ZM401.68 98.5819C403.314 99.5434 405.247 100 407.435 100V98C405.527 98 403.961 97.6033 402.694 96.8581L401.68 98.5819ZM407.435 100C410.559 100 413.143 99.0261 415.071 97.0017L413.623 95.6223C412.138 97.1819 410.114 98 407.435 98V100ZM415.087 96.9847C417.004 94.8764 417.907 92.0519 417.907 88.632H415.907C415.907 91.6974 415.104 93.9929 413.607 95.6393L415.087 96.9847ZM417.907 88.632V52.792H415.907V88.632H417.907ZM416.907 53.792H436.491V51.792H416.907V53.792ZM435.491 52.792V88.76H437.491V52.792H435.491ZM435.491 88.76C435.491 94.0649 434.291 98.706 431.918 102.715L433.64 103.733C436.216 99.3793 437.491 94.3778 437.491 88.76H435.491ZM431.923 102.707C429.543 106.646 426.261 109.768 422.058 112.075L423.02 113.829C427.521 111.358 431.066 107.994 433.635 103.741L431.923 102.707ZM422.071 112.068C417.885 114.284 413.016 115.408 407.435 115.408V117.408C413.289 117.408 418.489 116.228 423.007 113.836L422.071 112.068ZM459.539 112.056L459.01 112.905L459.018 112.909L459.539 112.056ZM448.787 100.536L447.902 101.002L447.909 101.014L448.787 100.536ZM448.787 67.256L447.908 66.7782L447.902 66.7903L448.787 67.256ZM459.539 55.736L459.018 54.8827L459.01 54.8871L459.539 55.736ZM486.803 53.944L486.374 54.8473L486.383 54.8513L486.803 53.944ZM495.379 60.728L494.585 61.3354L494.595 61.3485L494.605 61.3612L495.379 60.728ZM499.219 70.456H500.219V70.4212L500.217 70.3864L499.219 70.456ZM499.219 96.696L500.217 96.7656L500.219 96.7308V96.696H499.219ZM495.507 106.68L496.301 107.288L496.31 107.276L495.507 106.68ZM486.931 113.72L487.369 114.619L487.378 114.614L487.387 114.61L486.931 113.72ZM486.035 96.824L486.539 97.6878L486.552 97.6801L486.565 97.672L486.035 96.824ZM490.899 91.576L490.019 91.1019L490.899 91.576ZM490.899 76.344L490.005 76.7912L490.015 76.8122L490.026 76.8326L490.899 76.344ZM486.035 71.096L485.505 71.944L485.513 71.9488L485.521 71.9535L486.035 71.096ZM471.571 71.096L471.057 70.2385L471.049 70.2432L471.041 70.248L471.571 71.096ZM466.579 76.344L465.713 75.8443L465.705 75.857L465.699 75.8699L466.579 76.344ZM466.579 91.448L465.699 91.9221L466.579 91.448ZM511.123 115V116H512.123V115H511.123ZM491.923 115H490.923V116H491.923V115ZM491.923 98.232L490.941 98.0407L490.923 98.1355V98.232H491.923ZM494.867 83.128L495.849 83.3193L495.888 83.1156L495.844 82.9128L494.867 83.128ZM491.539 68.024H490.539V68.1329L490.562 68.2392L491.539 68.024ZM491.539 22.072V21.072H490.539V22.072H491.539ZM511.123 22.072H512.123V21.072H511.123V22.072ZM475.283 115.28C469.562 115.28 464.497 113.914 460.06 111.203L459.018 112.909C463.797 115.83 469.228 117.28 475.283 117.28V115.28ZM460.068 111.207C455.698 108.486 452.232 104.777 449.665 100.058L447.909 101.014C450.633 106.023 454.335 109.994 459.01 112.905L460.068 111.207ZM449.672 100.07C447.197 95.368 445.947 89.9849 445.947 83.896H443.947C443.947 90.2658 445.257 95.976 447.902 101.002L449.672 100.07ZM445.947 83.896C445.947 77.8071 447.197 72.424 449.672 67.7217L447.902 66.7903C445.257 71.816 443.947 77.5262 443.947 83.896H445.947ZM449.665 67.7338C452.232 63.0154 455.698 59.3059 460.068 56.5849L459.01 54.8871C454.335 57.7981 450.633 61.7686 447.909 66.7782L449.665 67.7338ZM460.06 56.5893C464.497 53.8778 469.562 52.512 475.283 52.512V50.512C469.228 50.512 463.797 51.9622 459.018 54.8827L460.06 56.5893ZM475.283 52.512C479.421 52.512 483.111 53.2974 486.374 54.8473L487.232 53.0407C483.668 51.3479 479.679 50.512 475.283 50.512V52.512ZM486.383 54.8513C489.743 56.4084 492.47 58.5701 494.585 61.3354L496.173 60.1205C493.851 57.0832 490.861 54.7223 487.223 53.0367L486.383 54.8513ZM494.605 61.3612C496.776 64.0152 497.98 67.0603 498.221 70.5256L500.217 70.3864C499.946 66.513 498.59 63.0728 496.153 60.0948L494.605 61.3612ZM498.219 70.456V96.696H500.219V70.456H498.219ZM498.221 96.6264C497.979 100.103 496.81 103.248 494.704 106.084L496.31 107.276C498.641 104.138 499.947 100.628 500.217 96.7656L498.221 96.6264ZM494.713 106.073C492.591 108.847 489.852 111.101 486.475 112.83L487.387 114.61C491.008 112.755 493.986 110.316 496.301 107.287L494.713 106.073ZM486.493 112.821C483.143 114.455 479.413 115.28 475.283 115.28V117.28C479.687 117.28 483.721 116.398 487.369 114.619L486.493 112.821ZM478.739 99.616C481.699 99.616 484.311 98.9871 486.539 97.6878L485.531 95.9602C483.663 97.0502 481.411 97.616 478.739 97.616V99.616ZM486.565 97.672C488.767 96.2959 490.506 94.4148 491.779 92.0501L490.019 91.1019C488.902 93.1745 487.399 94.7921 485.505 95.976L486.565 97.672ZM491.779 92.0501C493.064 89.665 493.691 86.9376 493.691 83.896H491.691C491.691 86.6571 491.124 89.0497 490.019 91.1019L491.779 92.0501ZM493.691 83.896C493.691 80.8556 493.064 78.1636 491.772 75.8554L490.026 76.8326C491.123 78.791 491.691 81.1338 491.691 83.896H493.691ZM491.793 75.8968C490.599 73.5075 488.845 71.6161 486.549 70.2385L485.521 71.9535C487.491 73.1359 488.981 74.7432 490.005 76.7912L491.793 75.8968ZM486.565 70.248C484.338 68.8561 481.76 68.176 478.867 68.176V70.176C481.435 70.176 483.636 70.7759 485.505 71.944L486.565 70.248ZM478.867 68.176C475.973 68.176 473.36 68.8563 471.057 70.2385L472.086 71.9535C474.048 70.7757 476.299 70.176 478.867 70.176V68.176ZM471.041 70.248C468.846 71.6201 467.07 73.4926 465.713 75.8443L467.445 76.8437C468.648 74.7581 470.2 73.1319 472.101 71.944L471.041 70.248ZM465.699 75.8699C464.417 78.2507 463.787 80.9343 463.787 83.896H465.787C465.787 81.2257 466.352 78.8746 467.459 76.8181L465.699 75.8699ZM463.787 83.896C463.787 86.8577 464.417 89.5413 465.699 91.9221L467.459 90.9739C466.352 88.9174 465.787 86.5663 465.787 83.896H463.787ZM465.699 91.9221C466.977 94.297 468.767 96.1797 471.057 97.5535L472.086 95.8385C470.108 94.6523 468.57 93.0363 467.459 90.9739L465.699 91.9221ZM471.057 97.5535C473.355 98.9327 475.924 99.616 478.739 99.616V97.616C476.263 97.616 474.053 97.0193 472.086 95.8385L471.057 97.5535ZM511.123 114H491.923V116H511.123V114ZM492.923 115V98.232H490.923V115H492.923ZM492.905 98.4233L495.849 83.3193L493.885 82.9367L490.941 98.0407L492.905 98.4233ZM495.844 82.9128L492.516 67.8088L490.562 68.2392L493.89 83.3432L495.844 82.9128ZM492.539 68.024V22.072H490.539V68.024H492.539ZM491.539 23.072H511.123V21.072H491.539V23.072ZM510.123 22.072V115H512.123V22.072H510.123ZM536.688 115.128L536.429 116.094L536.435 116.095L536.688 115.128ZM526.832 111.16L526.318 112.017L526.332 112.026L526.346 112.034L526.832 111.16ZM519.152 105.016L518.441 104.313L517.768 104.993L518.418 105.695L519.152 105.016ZM530.288 93.752L531.023 93.0737L530.313 92.3046L529.577 93.0489L530.288 93.752ZM537.584 99L537.17 99.9104L537.182 99.9156L537.193 99.9206L537.584 99ZM552.048 99.768L551.577 98.8856L551.565 98.8925L551.552 98.8998L552.048 99.768ZM551.664 93.496L551.157 94.3579L551.186 94.3752L551.217 94.3904L551.664 93.496ZM546.032 91.32L545.748 92.2788L545.764 92.2837L545.781 92.288L546.032 91.32ZM531.44 85.944L531.95 85.0837L531.44 85.944ZM525.808 80.312L524.945 80.8177L524.949 80.8244L524.953 80.831L525.808 80.312ZM526.704 60.6L527.521 61.1767L527.529 61.1655L526.704 60.6ZM535.408 53.56L534.994 52.6496L535.408 53.56ZM563.184 53.816L562.794 54.737L562.805 54.7414L562.816 54.7457L563.184 53.816ZM574.192 61.88L574.903 62.5831L575.523 61.9558L574.978 61.2622L574.192 61.88ZM563.056 73.144L562.295 73.7925L563.001 74.6218L563.767 73.8471L563.056 73.144ZM556.4 68.28L556.034 69.2108L556.045 69.215L556.4 68.28ZM544.368 67.896L544.842 68.7765L544.867 68.7628L544.892 68.7477L544.368 67.896ZM550.512 75.704L550.261 76.672L550.512 75.704ZM557.808 77.88L558.124 76.9313L557.808 77.88ZM565.104 81.336L565.637 80.4898L565.104 81.336ZM570.736 87.224L569.873 87.7297L569.877 87.7364L569.881 87.743L570.736 87.224ZM566 111.16L565.386 110.371L565.379 110.376L566 111.16ZM547.568 115.536C543.985 115.536 540.443 115.078 536.941 114.161L536.435 116.095C540.101 117.055 543.812 117.536 547.568 117.536V115.536ZM536.947 114.162C533.525 113.244 530.316 111.952 527.318 110.286L526.346 112.034C529.492 113.782 532.854 115.135 536.429 116.094L536.947 114.162ZM527.346 110.303C524.432 108.554 521.948 106.564 519.886 104.337L518.418 105.695C520.622 108.076 523.258 110.182 526.318 112.017L527.346 110.303ZM519.863 105.719L530.999 94.4551L529.577 93.0489L518.441 104.313L519.863 105.719ZM529.553 94.4303C531.694 96.7494 534.236 98.5766 537.17 99.9104L537.998 98.0896C535.3 96.8634 532.978 95.192 531.023 93.0737L529.553 94.4303ZM537.193 99.9206C540.143 101.172 543.35 101.792 546.8 101.792V99.792C543.594 99.792 540.656 99.2172 537.975 98.0794L537.193 99.9206ZM546.8 101.792C549.174 101.792 551.128 101.445 552.544 100.636L551.552 98.8998C550.578 99.4561 549.034 99.792 546.8 99.792V101.792ZM552.519 100.65C554.041 99.8384 554.968 98.6018 554.968 96.952H552.968C552.968 97.6916 552.615 98.3323 551.577 98.8856L552.519 100.65ZM554.968 96.952C554.968 96.009 554.729 95.1393 554.224 94.3813C553.723 93.6296 552.998 93.0449 552.111 92.6016L551.217 94.3904C551.866 94.7151 552.293 95.0904 552.56 95.4907C552.823 95.8847 552.968 96.359 552.968 96.952H554.968ZM552.171 92.6341C550.615 91.7187 548.643 90.9638 546.283 90.352L545.781 92.288C548.029 92.8708 549.812 93.5666 551.157 94.3579L552.171 92.6341ZM546.316 90.3612C544.013 89.6789 541.582 88.9539 539.023 88.1862L538.449 90.1018C541.01 90.8701 543.443 91.5958 545.748 92.2788L546.316 90.3612ZM539.023 88.1862C536.541 87.4416 534.184 86.4077 531.95 85.0837L530.93 86.8043C533.304 88.211 535.811 89.3104 538.449 90.1018L539.023 88.1862ZM531.95 85.0837C529.793 83.8058 528.032 82.0483 526.663 79.793L524.953 80.831C526.485 83.3543 528.479 85.3515 530.93 86.8043L531.95 85.0837ZM526.671 79.8063C525.334 77.5254 524.632 74.5984 524.632 70.968H522.632C522.632 74.8469 523.381 78.1493 524.945 80.8177L526.671 79.8063ZM524.632 70.968C524.632 67.1361 525.607 63.8879 527.521 61.1767L525.887 60.0233C523.705 63.1147 522.632 66.7786 522.632 70.968H524.632ZM527.529 61.1655C529.46 58.349 532.209 56.1123 535.822 54.4704L534.994 52.6496C531.097 54.421 528.044 56.8776 525.879 60.0345L527.529 61.1655ZM535.822 54.4704C539.421 52.8343 543.669 52 548.592 52V50C543.445 50 538.904 50.8723 534.994 52.6496L535.822 54.4704ZM548.592 52C553.762 52 558.492 52.9167 562.794 54.737L563.574 52.895C559.001 50.9606 554.003 50 548.592 50V52ZM562.816 54.7457C567.185 56.4771 570.706 59.0623 573.406 62.4978L574.978 61.2622C572.046 57.5297 568.228 54.7389 563.552 52.8863L562.816 54.7457ZM573.481 61.1769L562.345 72.4409L563.767 73.8471L574.903 62.5831L573.481 61.1769ZM563.817 72.4955C561.761 70.0819 559.408 68.3515 556.755 67.345L556.045 69.215C558.341 70.0858 560.425 71.5981 562.295 73.7925L563.817 72.4955ZM556.766 67.3493C554.273 66.37 551.803 65.872 549.36 65.872V67.872C551.525 67.872 553.748 68.3126 556.034 69.2107L556.766 67.3493ZM549.36 65.872C547.071 65.872 545.186 66.2183 543.844 67.0443L544.892 68.7477C545.768 68.2084 547.211 67.872 549.36 67.872V65.872ZM543.894 67.0155C543.215 67.381 542.656 67.866 542.27 68.4896C541.882 69.1161 541.704 69.8262 541.704 70.584H543.704C543.704 70.1471 543.803 69.8119 543.97 69.5424C544.139 69.27 544.411 69.0084 544.842 68.7765L543.894 67.0155ZM541.704 70.584C541.704 72.3429 542.743 73.6559 544.412 74.5398L545.348 72.7722C544.116 72.1201 543.704 71.3851 543.704 70.584H541.704ZM544.412 74.5398C545.955 75.3565 547.912 76.063 550.261 76.672L550.763 74.736C548.504 74.1503 546.707 73.4915 545.348 72.7722L544.412 74.5398ZM550.261 76.672C552.54 77.2629 554.951 77.9816 557.492 78.8287L558.124 76.9313C555.545 76.0717 553.092 75.3397 550.763 74.736L550.261 76.672ZM557.492 78.8287C559.975 79.6564 562.334 80.7739 564.571 82.1822L565.637 80.4898C563.266 78.9968 560.761 77.8102 558.124 76.9313L557.492 78.8287ZM564.571 82.1822C566.732 83.5429 568.499 85.3857 569.873 87.7297L571.599 86.7183C570.071 84.1129 568.084 82.0304 565.637 80.4898L564.571 82.1822ZM569.881 87.743C571.206 89.9249 571.912 92.8831 571.912 96.696H573.912C573.912 92.6582 573.167 89.3018 571.591 86.705L569.881 87.743ZM571.912 96.696C571.912 102.46 569.74 106.984 565.386 110.371L566.614 111.949C571.476 108.168 573.912 103.05 573.912 96.696H571.912ZM565.379 110.376C561.086 113.779 555.186 115.536 547.568 115.536V117.536C555.481 117.536 561.869 115.709 566.621 111.944L565.379 110.376ZM595.313 115.128L595.054 116.094L595.06 116.095L595.313 115.128ZM585.457 111.16L584.943 112.017L584.957 112.026L584.971 112.034L585.457 111.16ZM577.777 105.016L577.066 104.313L576.393 104.993L577.043 105.695L577.777 105.016ZM588.913 93.752L589.648 93.0737L588.938 92.3046L588.202 93.0489L588.913 93.752ZM596.209 99L595.795 99.9104L595.807 99.9156L595.818 99.9206L596.209 99ZM610.673 99.768L610.202 98.8856L610.19 98.8925L610.177 98.8998L610.673 99.768ZM610.289 93.496L609.782 94.3579L609.811 94.3752L609.842 94.3904L610.289 93.496ZM604.657 91.32L604.373 92.2788L604.389 92.2837L604.406 92.288L604.657 91.32ZM590.065 85.944L590.575 85.0837L590.065 85.944ZM584.433 80.312L583.57 80.8177L583.574 80.8244L583.578 80.831L584.433 80.312ZM585.329 60.6L586.146 61.1767L586.154 61.1655L585.329 60.6ZM594.033 53.56L593.619 52.6496L594.033 53.56ZM621.809 53.816L621.419 54.737L621.43 54.7414L621.441 54.7457L621.809 53.816ZM632.817 61.88L633.528 62.5831L634.148 61.9558L633.603 61.2622L632.817 61.88ZM621.681 73.144L620.92 73.7925L621.626 74.6218L622.392 73.8471L621.681 73.144ZM615.025 68.28L614.659 69.2108L614.67 69.215L615.025 68.28ZM602.993 67.896L603.467 68.7765L603.492 68.7628L603.517 68.7477L602.993 67.896ZM609.137 75.704L608.886 76.672L609.137 75.704ZM616.433 77.88L616.749 76.9313L616.433 77.88ZM623.729 81.336L624.262 80.4898L623.729 81.336ZM629.361 87.224L628.498 87.7297L628.502 87.7364L628.506 87.743L629.361 87.224ZM624.625 111.16L624.011 110.371L624.004 110.376L624.625 111.16ZM606.193 115.536C602.61 115.536 599.068 115.078 595.566 114.161L595.06 116.095C598.726 117.055 602.437 117.536 606.193 117.536V115.536ZM595.572 114.162C592.15 113.244 588.941 111.952 585.943 110.286L584.971 112.034C588.117 113.782 591.479 115.135 595.054 116.094L595.572 114.162ZM585.971 110.303C583.057 108.554 580.573 106.564 578.511 104.337L577.043 105.695C579.247 108.076 581.883 110.182 584.943 112.017L585.971 110.303ZM578.488 105.719L589.624 94.4551L588.202 93.0489L577.066 104.313L578.488 105.719ZM588.178 94.4303C590.319 96.7494 592.861 98.5766 595.795 99.9104L596.623 98.0896C593.925 96.8634 591.603 95.192 589.648 93.0737L588.178 94.4303ZM595.818 99.9206C598.768 101.172 601.975 101.792 605.425 101.792V99.792C602.219 99.792 599.281 99.2172 596.6 98.0794L595.818 99.9206ZM605.425 101.792C607.799 101.792 609.753 101.445 611.169 100.636L610.177 98.8998C609.203 99.4561 607.659 99.792 605.425 99.792V101.792ZM611.144 100.65C612.666 99.8384 613.593 98.6018 613.593 96.952H611.593C611.593 97.6916 611.24 98.3323 610.202 98.8856L611.144 100.65ZM613.593 96.952C613.593 96.009 613.354 95.1393 612.849 94.3813C612.348 93.6296 611.623 93.0449 610.736 92.6016L609.842 94.3904C610.491 94.7151 610.918 95.0904 611.185 95.4907C611.448 95.8847 611.593 96.359 611.593 96.952H613.593ZM610.796 92.6341C609.24 91.7187 607.268 90.9638 604.908 90.352L604.406 92.288C606.654 92.8708 608.437 93.5666 609.782 94.3579L610.796 92.6341ZM604.941 90.3612C602.638 89.6789 600.207 88.9539 597.648 88.1862L597.074 90.1018C599.635 90.8701 602.068 91.5958 604.373 92.2788L604.941 90.3612ZM597.648 88.1862C595.166 87.4416 592.809 86.4077 590.575 85.0837L589.555 86.8043C591.929 88.211 594.436 89.3104 597.074 90.1018L597.648 88.1862ZM590.575 85.0837C588.418 83.8058 586.657 82.0483 585.288 79.793L583.578 80.831C585.11 83.3543 587.104 85.3515 589.555 86.8043L590.575 85.0837ZM585.296 79.8063C583.959 77.5254 583.257 74.5984 583.257 70.968H581.257C581.257 74.8469 582.006 78.1493 583.57 80.8177L585.296 79.8063ZM583.257 70.968C583.257 67.1361 584.232 63.8879 586.146 61.1767L584.512 60.0233C582.33 63.1147 581.257 66.7786 581.257 70.968H583.257ZM586.154 61.1655C588.085 58.349 590.834 56.1123 594.447 54.4704L593.619 52.6496C589.722 54.421 586.669 56.8776 584.504 60.0345L586.154 61.1655ZM594.447 54.4704C598.046 52.8343 602.294 52 607.217 52V50C602.07 50 597.529 50.8723 593.619 52.6496L594.447 54.4704ZM607.217 52C612.387 52 617.117 52.9167 621.419 54.737L622.199 52.895C617.626 50.9606 612.628 50 607.217 50V52ZM621.441 54.7457C625.81 56.4771 629.331 59.0623 632.031 62.4978L633.603 61.2622C630.671 57.5297 626.853 54.7389 622.177 52.8863L621.441 54.7457ZM632.106 61.1769L620.97 72.4409L622.392 73.8471L633.528 62.5831L632.106 61.1769ZM622.442 72.4955C620.386 70.0819 618.033 68.3515 615.38 67.345L614.67 69.215C616.966 70.0858 619.05 71.5981 620.92 73.7925L622.442 72.4955ZM615.391 67.3493C612.898 66.37 610.428 65.872 607.985 65.872V67.872C610.15 67.872 612.373 68.3126 614.659 69.2107L615.391 67.3493ZM607.985 65.872C605.696 65.872 603.811 66.2183 602.469 67.0443L603.517 68.7477C604.393 68.2084 605.836 67.872 607.985 67.872V65.872ZM602.519 67.0155C601.84 67.381 601.281 67.866 600.895 68.4896C600.507 69.1161 600.329 69.8262 600.329 70.584H602.329C602.329 70.1471 602.428 69.8119 602.595 69.5424C602.764 69.27 603.036 69.0084 603.467 68.7765L602.519 67.0155ZM600.329 70.584C600.329 72.3429 601.368 73.6559 603.037 74.5398L603.973 72.7722C602.741 72.1201 602.329 71.3851 602.329 70.584H600.329ZM603.037 74.5398C604.58 75.3565 606.537 76.063 608.886 76.672L609.388 74.736C607.129 74.1503 605.332 73.4915 603.973 72.7722L603.037 74.5398ZM608.886 76.672C611.165 77.2629 613.576 77.9816 616.117 78.8287L616.749 76.9313C614.17 76.0717 611.717 75.3397 609.388 74.736L608.886 76.672ZM616.117 78.8287C618.6 79.6564 620.959 80.7739 623.196 82.1822L624.262 80.4898C621.891 78.9968 619.386 77.8102 616.749 76.9313L616.117 78.8287ZM623.196 82.1822C625.357 83.5429 627.124 85.3857 628.498 87.7297L630.224 86.7183C628.696 84.1129 626.709 82.0304 624.262 80.4898L623.196 82.1822ZM628.506 87.743C629.831 89.9249 630.537 92.8831 630.537 96.696H632.537C632.537 92.6582 631.792 89.3018 630.216 86.705L628.506 87.743ZM630.537 96.696C630.537 102.46 628.365 106.984 624.011 110.371L625.239 111.949C630.101 108.168 632.537 103.05 632.537 96.696H630.537ZM624.004 110.376C619.711 113.779 613.811 115.536 606.193 115.536V117.536C614.106 117.536 620.494 115.709 625.246 111.944L624.004 110.376ZM690.857 115L689.905 115.306L690.128 116H690.857V115ZM661.801 24.632V23.632H660.429L660.849 24.9381L661.801 24.632ZM681.769 24.632L682.725 24.3396L682.509 23.632H681.769V24.632ZM703.017 94.136V95.136H704.368L703.973 93.8436L703.017 94.136ZM695.209 94.136L694.251 93.8501L693.867 95.136H695.209V94.136ZM715.945 24.632V23.632H715.2L714.987 24.3461L715.945 24.632ZM731.689 24.632L732.647 24.3461L732.434 23.632H731.689V24.632ZM752.425 94.136V95.136H753.767L753.383 93.8501L752.425 94.136ZM744.745 94.136L743.788 93.8453L743.396 95.136H744.745V94.136ZM765.865 24.632V23.632H765.124L764.908 24.3413L765.865 24.632ZM785.705 24.632L786.657 24.9381L787.077 23.632H785.705V24.632ZM756.649 115V116H757.378L757.601 115.306L756.649 115ZM740.905 115L739.947 115.288L740.161 116H740.905V115ZM720.041 45.496V44.496H718.697L719.083 45.7835L720.041 45.496ZM727.465 45.496L728.423 45.7835L728.809 44.496H727.465V45.496ZM706.601 115V116H707.345L707.559 115.288L706.601 115ZM691.809 114.694L662.753 24.3259L660.849 24.9381L689.905 115.306L691.809 114.694ZM661.801 25.632H681.769V23.632H661.801V25.632ZM680.813 24.9243L702.061 94.4284L703.973 93.8436L682.725 24.3396L680.813 24.9243ZM703.017 93.136H695.209V95.136H703.017V93.136ZM696.167 94.4219L716.903 24.9179L714.987 24.3461L694.251 93.8501L696.167 94.4219ZM715.945 25.632H731.689V23.632H715.945V25.632ZM730.731 24.9179L751.467 94.4219L753.383 93.8501L732.647 24.3461L730.731 24.9179ZM752.425 93.136H744.745V95.136H752.425V93.136ZM745.702 94.4267L766.822 24.9227L764.908 24.3413L743.788 93.8453L745.702 94.4267ZM765.865 25.632H785.705V23.632H765.865V25.632ZM784.753 24.3259L755.697 114.694L757.601 115.306L786.657 24.9381L784.753 24.3259ZM756.649 114H740.905V116H756.649V114ZM741.863 114.712L720.999 45.2085L719.083 45.7835L739.947 115.288L741.863 114.712ZM720.041 46.496H727.465V44.496H720.041V46.496ZM726.507 45.2085L705.643 114.712L707.559 115.288L728.423 45.7835L726.507 45.2085ZM706.601 114H690.857V116H706.601V114ZM799.331 112.184L798.838 113.054L798.847 113.059L798.855 113.064L799.331 112.184ZM787.171 100.408L788.027 99.8913L787.171 100.408ZM787.171 67.256L786.319 66.7327L787.171 67.256ZM799.331 55.736L799.813 56.6123L799.824 56.606L799.331 55.736ZM846.307 67.256L845.451 67.7727L845.455 67.7793L846.307 67.256ZM846.307 100.408L847.163 100.925L846.307 100.408ZM834.147 112.184L834.629 113.06L834.64 113.054L834.147 112.184ZM824.163 96.824L824.652 97.6965L824.665 97.6892L824.677 97.6815L824.163 96.824ZM829.027 91.576L828.139 91.1157L828.136 91.1222L828.133 91.1288L829.027 91.576ZM829.027 76.216L828.147 76.6901L828.15 76.6974L828.154 76.7046L829.027 76.216ZM824.035 71.096L823.505 71.944L823.525 71.9567L823.546 71.9685L824.035 71.096ZM809.443 71.096L809.932 71.9685L809.945 71.9612L809.958 71.9535L809.443 71.096ZM804.451 76.216L805.331 76.6901L804.451 76.216ZM804.451 91.576L803.563 92.0363L803.567 92.0432L803.571 92.0501L804.451 91.576ZM809.443 96.824L808.929 97.6815L808.941 97.6892L808.954 97.6965L809.443 96.824ZM816.739 115.408C810.491 115.408 804.854 114.035 799.807 111.304L798.855 113.064C804.218 115.965 810.187 117.408 816.739 117.408V115.408ZM799.824 111.314C794.851 108.496 790.923 104.691 788.027 99.8913L786.315 100.925C789.392 106.024 793.571 110.07 798.838 113.054L799.824 111.314ZM788.027 99.8913C785.141 95.1078 783.691 89.7418 783.691 83.768H781.691C781.691 90.0822 783.228 95.8095 786.315 100.925L788.027 99.8913ZM783.691 83.768C783.691 77.7941 785.141 72.4738 788.023 67.7793L786.319 66.7327C783.228 71.7662 781.691 77.4539 781.691 83.768H783.691ZM788.023 67.7793C790.917 63.0667 794.841 59.3467 799.813 56.6122L798.849 54.8598C793.581 57.7573 789.398 61.7173 786.319 66.7327L788.023 67.7793ZM799.824 56.606C804.779 53.7984 810.408 52.384 816.739 52.384V50.384C810.099 50.384 804.123 51.871 798.838 54.866L799.824 56.606ZM816.739 52.384C823.075 52.384 828.708 53.7581 833.665 56.4842L834.629 54.7318C829.346 51.8259 823.374 50.384 816.739 50.384V52.384ZM833.665 56.4842C838.633 59.2164 842.556 62.9757 845.451 67.7727L847.163 66.7393C844.085 61.6376 839.901 57.6316 834.629 54.7318L833.665 56.4842ZM845.455 67.7793C848.337 72.4738 849.787 77.7941 849.787 83.768H851.787C851.787 77.4539 850.25 71.7662 847.159 66.7327L845.455 67.7793ZM849.787 83.768C849.787 89.7418 848.337 95.1078 845.451 99.8913L847.163 100.925C850.25 95.8095 851.787 90.0822 851.787 83.768H849.787ZM845.451 99.8913C842.555 104.691 838.627 108.496 833.654 111.314L834.64 113.054C839.907 110.07 844.086 106.024 847.163 100.925L845.451 99.8913ZM833.665 111.308C828.708 114.034 823.075 115.408 816.739 115.408V117.408C823.374 117.408 829.346 115.966 834.629 113.06L833.665 111.308ZM816.739 99.616C819.7 99.616 822.348 98.9867 824.652 97.6965L823.674 95.9515C821.712 97.0506 819.41 97.616 816.739 97.616V99.616ZM824.677 97.6815C826.973 96.3039 828.727 94.4125 829.921 92.0232L828.133 91.1288C827.109 93.1768 825.619 94.784 823.648 95.9665L824.677 97.6815ZM829.915 92.0363C831.192 89.574 831.819 86.8104 831.819 83.768H829.819C829.819 86.5283 829.252 88.97 828.139 91.1157L829.915 92.0363ZM831.819 83.768C831.819 80.7276 831.192 78.0356 829.9 75.7274L828.154 76.7046C829.251 78.663 829.819 81.0058 829.819 83.768H831.819ZM829.907 75.7419C828.626 73.3613 826.828 71.514 824.524 70.2235L823.546 71.9685C825.509 73.0674 827.039 74.6334 828.147 76.6901L829.907 75.7419ZM824.565 70.248C822.333 68.8531 819.711 68.176 816.739 68.176V70.176C819.399 70.176 821.641 70.7789 823.505 71.944L824.565 70.248ZM816.739 68.176C813.845 68.176 811.232 68.8563 808.929 70.2385L809.958 71.9535C811.92 70.7757 814.171 70.176 816.739 70.176V68.176ZM808.954 70.2235C806.65 71.514 804.852 73.3613 803.571 75.7419L805.331 76.6901C806.439 74.6334 807.969 73.0674 809.932 71.9685L808.954 70.2235ZM803.571 75.7419C802.286 78.127 801.659 80.8544 801.659 83.896H803.659C803.659 81.1349 804.226 78.7423 805.331 76.6901L803.571 75.7419ZM801.659 83.896C801.659 86.8583 802.289 89.5782 803.563 92.0363L805.339 91.1157C804.224 88.9658 803.659 86.5657 803.659 83.896H801.659ZM803.571 92.0501C804.849 94.425 806.639 96.3077 808.929 97.6815L809.958 95.9665C807.98 94.7803 806.442 93.1643 805.331 91.1019L803.571 92.0501ZM808.954 97.6965C811.254 98.9842 813.858 99.616 816.739 99.616V97.616C814.159 97.616 811.899 97.0531 809.932 95.9515L808.954 97.6965ZM860.537 115H859.537V116H860.537V115ZM860.537 52.792V51.792H859.537V52.792H860.537ZM880.121 52.792H881.121V51.792H880.121V52.792ZM880.121 115V116H881.121V115H880.121ZM880.121 80.824L879.505 81.612L881.121 82.8742V80.824H880.121ZM871.929 74.424L870.953 74.2059L870.815 74.8228L871.313 75.212L871.929 74.424ZM880.121 57.528L880.843 58.2196L880.121 57.528ZM903.929 52.92L903.539 53.841L903.56 53.8498L903.582 53.8577L903.929 52.92ZM909.945 57.016L910.729 57.6365L911.256 56.9712L910.685 56.3433L909.945 57.016ZM898.297 71.736L897.557 72.4087L898.35 73.2807L899.081 72.3565L898.297 71.736ZM895.097 69.56L894.726 70.4885L895.097 69.56ZM882.937 71.864L882.215 71.1721L882.214 71.1728L882.937 71.864ZM861.537 115V52.792H859.537V115H861.537ZM860.537 53.792H880.121V51.792H860.537V53.792ZM879.121 52.792V115H881.121V52.792H879.121ZM880.121 114H860.537V116H880.121V114ZM880.737 80.036L872.545 73.636L871.313 75.212L879.505 81.612L880.737 80.036ZM872.905 74.6421C874.5 67.5084 877.165 62.0611 880.843 58.2196L879.399 56.8364C875.397 61.0162 872.601 66.833 870.953 74.2059L872.905 74.6421ZM880.843 58.2196C884.453 54.4495 889.5 52.512 896.121 52.512V50.512C889.089 50.512 883.469 52.5851 879.399 56.8364L880.843 58.2196ZM896.121 52.512C899.005 52.512 901.47 52.9653 903.539 53.841L904.319 51.999C901.951 50.9973 899.21 50.512 896.121 50.512V52.512ZM903.582 53.8577C905.73 54.6536 907.602 55.9259 909.205 57.6887L910.685 56.3433C908.874 54.3515 906.736 52.8931 904.276 51.9823L903.582 53.8577ZM909.161 56.3955L897.513 71.1155L899.081 72.3565L910.729 57.6365L909.161 56.3955ZM899.037 71.0633C898.073 70.0031 896.877 69.1948 895.468 68.6315L894.726 70.4885C895.877 70.9492 896.814 71.5916 897.557 72.4087L899.037 71.0633ZM895.468 68.6315C894.051 68.0647 892.472 67.792 890.745 67.792V69.792C892.261 69.792 893.583 70.0313 894.726 70.4885L895.468 68.6315ZM890.745 67.792C887.272 67.792 884.394 68.8985 882.215 71.1721L883.659 72.5559C885.405 70.7335 887.732 69.792 890.745 69.792V67.792ZM882.214 71.1728C880.09 73.3938 879.121 76.6771 879.121 80.824H881.121C881.121 76.9496 882.029 74.2595 883.66 72.5552L882.214 71.1728ZM954.97 115L954.141 115.559L954.438 116H954.97V115ZM933.21 82.744L932.399 82.1585L931.991 82.7245L932.381 83.3032L933.21 82.744ZM954.842 52.792V51.792H954.331L954.031 52.2065L954.842 52.792ZM976.73 52.792L977.52 53.4049L978.771 51.792H976.73V52.792ZM950.618 86.456L949.621 86.3769L949.356 89.7142L951.408 87.0689L950.618 86.456ZM951.258 78.392L952.065 77.802L950.474 75.6249L950.261 78.3129L951.258 78.392ZM978.01 115V116H979.979L978.817 114.41L978.01 115ZM915.162 115H914.162V116H915.162V115ZM915.162 22.072V21.072H914.162V22.072H915.162ZM934.746 22.072H935.746V21.072H934.746V22.072ZM934.746 115V116H935.746V115H934.746ZM955.799 114.441L934.039 82.1848L932.381 83.3032L954.141 115.559L955.799 114.441ZM934.021 83.3295L955.653 53.3775L954.031 52.2065L932.399 82.1585L934.021 83.3295ZM954.842 53.792H976.73V51.792H954.842V53.792ZM975.94 52.1791L949.828 85.8431L951.408 87.0689L977.52 53.4049L975.94 52.1791ZM951.615 86.5351L952.255 78.4711L950.261 78.3129L949.621 86.3769L951.615 86.5351ZM950.451 78.982L977.203 115.59L978.817 114.41L952.065 77.802L950.451 78.982ZM978.01 114H954.97V116H978.01V114ZM916.162 115V22.072H914.162V115H916.162ZM915.162 23.072H934.746V21.072H915.162V23.072ZM933.746 22.072V115H935.746V22.072H933.746ZM934.746 114H915.162V116H934.746V114ZM993.188 115.128L992.929 116.094L992.935 116.095L993.188 115.128ZM983.332 111.16L982.818 112.017L982.832 112.026L982.846 112.034L983.332 111.16ZM975.652 105.016L974.941 104.313L974.268 104.993L974.918 105.695L975.652 105.016ZM986.788 93.752L987.523 93.0737L986.813 92.3046L986.077 93.0489L986.788 93.752ZM994.084 99L993.67 99.9104L993.682 99.9156L993.693 99.9206L994.084 99ZM1008.55 99.768L1008.08 98.8856L1008.06 98.8925L1008.05 98.8998L1008.55 99.768ZM1008.16 93.496L1007.66 94.3579L1007.69 94.3752L1007.72 94.3904L1008.16 93.496ZM1002.53 91.32L1002.25 92.2788L1002.26 92.2837L1002.28 92.288L1002.53 91.32ZM987.94 85.944L988.45 85.0837L987.94 85.944ZM982.308 80.312L981.445 80.8177L981.449 80.8244L981.453 80.831L982.308 80.312ZM983.204 60.6L984.021 61.1767L984.029 61.1655L983.204 60.6ZM991.908 53.56L991.494 52.6496L991.908 53.56ZM1019.68 53.816L1019.29 54.737L1019.3 54.7414L1019.32 54.7457L1019.68 53.816ZM1030.69 61.88L1031.4 62.5831L1032.02 61.9558L1031.48 61.2622L1030.69 61.88ZM1019.56 73.144L1018.79 73.7925L1019.5 74.6218L1020.27 73.8471L1019.56 73.144ZM1012.9 68.28L1012.53 69.2108L1012.55 69.215L1012.9 68.28ZM1000.87 67.896L1001.34 68.7765L1001.37 68.7628L1001.39 68.7477L1000.87 67.896ZM1007.01 75.704L1006.76 76.672L1007.01 75.704ZM1014.31 77.88L1014.62 76.9313L1014.31 77.88ZM1021.6 81.336L1022.14 80.4898L1021.6 81.336ZM1027.24 87.224L1026.37 87.7297L1026.38 87.7364L1026.38 87.743L1027.24 87.224ZM1022.5 111.16L1021.89 110.371L1021.88 110.376L1022.5 111.16ZM1004.07 115.536C1000.48 115.536 996.943 115.078 993.441 114.161L992.935 116.095C996.601 117.055 1000.31 117.536 1004.07 117.536V115.536ZM993.447 114.162C990.025 113.244 986.816 111.952 983.818 110.286L982.846 112.034C985.992 113.782 989.354 115.135 992.929 116.094L993.447 114.162ZM983.846 110.303C980.932 108.554 978.448 106.564 976.386 104.337L974.918 105.695C977.122 108.076 979.758 110.182 982.818 112.017L983.846 110.303ZM976.363 105.719L987.499 94.4551L986.077 93.0489L974.941 104.313L976.363 105.719ZM986.053 94.4303C988.194 96.7494 990.736 98.5766 993.67 99.9104L994.498 98.0896C991.8 96.8634 989.478 95.192 987.523 93.0737L986.053 94.4303ZM993.693 99.9206C996.643 101.172 999.85 101.792 1003.3 101.792V99.792C1000.09 99.792 997.156 99.2172 994.475 98.0794L993.693 99.9206ZM1003.3 101.792C1005.67 101.792 1007.63 101.445 1009.04 100.636L1008.05 98.8998C1007.08 99.4561 1005.53 99.792 1003.3 99.792V101.792ZM1009.02 100.65C1010.54 99.8384 1011.47 98.6018 1011.47 96.952H1009.47C1009.47 97.6916 1009.11 98.3323 1008.08 98.8856L1009.02 100.65ZM1011.47 96.952C1011.47 96.009 1011.23 95.1393 1010.72 94.3813C1010.22 93.6296 1009.5 93.0449 1008.61 92.6016L1007.72 94.3904C1008.37 94.7151 1008.79 95.0904 1009.06 95.4907C1009.32 95.8847 1009.47 96.359 1009.47 96.952H1011.47ZM1008.67 92.6341C1007.11 91.7187 1005.14 90.9638 1002.78 90.352L1002.28 92.288C1004.53 92.8708 1006.31 93.5666 1007.66 94.3579L1008.67 92.6341ZM1002.82 90.3612C1000.51 89.6789 998.082 88.9539 995.523 88.1862L994.949 90.1018C997.51 90.8701 999.943 91.5958 1002.25 92.2788L1002.82 90.3612ZM995.523 88.1862C993.041 87.4416 990.684 86.4077 988.45 85.0837L987.43 86.8043C989.804 88.211 992.311 89.3104 994.949 90.1018L995.523 88.1862ZM988.45 85.0837C986.293 83.8058 984.532 82.0483 983.163 79.793L981.453 80.831C982.985 83.3543 984.979 85.3515 987.43 86.8043L988.45 85.0837ZM983.171 79.8063C981.834 77.5254 981.132 74.5984 981.132 70.968H979.132C979.132 74.8469 979.881 78.1493 981.445 80.8177L983.171 79.8063ZM981.132 70.968C981.132 67.1361 982.107 63.8879 984.021 61.1767L982.387 60.0233C980.205 63.1147 979.132 66.7786 979.132 70.968H981.132ZM984.029 61.1655C985.96 58.349 988.709 56.1123 992.322 54.4704L991.494 52.6496C987.597 54.421 984.544 56.8776 982.379 60.0345L984.029 61.1655ZM992.322 54.4704C995.921 52.8343 1000.17 52 1005.09 52V50C999.945 50 995.404 50.8723 991.494 52.6496L992.322 54.4704ZM1005.09 52C1010.26 52 1014.99 52.9167 1019.29 54.737L1020.07 52.895C1015.5 50.9606 1010.5 50 1005.09 50V52ZM1019.32 54.7457C1023.69 56.4771 1027.21 59.0623 1029.91 62.4978L1031.48 61.2622C1028.55 57.5297 1024.73 54.7389 1020.05 52.8863L1019.32 54.7457ZM1029.98 61.1769L1018.84 72.4409L1020.27 73.8471L1031.4 62.5831L1029.98 61.1769ZM1020.32 72.4955C1018.26 70.0819 1015.91 68.3515 1013.25 67.345L1012.55 69.215C1014.84 70.0858 1016.93 71.5981 1018.79 73.7925L1020.32 72.4955ZM1013.27 67.3493C1010.77 66.37 1008.3 65.872 1005.86 65.872V67.872C1008.03 67.872 1010.25 68.3126 1012.53 69.2107L1013.27 67.3493ZM1005.86 65.872C1003.57 65.872 1001.69 66.2183 1000.34 67.0443L1001.39 68.7477C1002.27 68.2084 1003.71 67.872 1005.86 67.872V65.872ZM1000.39 67.0155C999.715 67.381 999.156 67.866 998.77 68.4896C998.382 69.1161 998.204 69.8262 998.204 70.584H1000.2C1000.2 70.1471 1000.3 69.8119 1000.47 69.5424C1000.64 69.27 1000.91 69.0084 1001.34 68.7765L1000.39 67.0155ZM998.204 70.584C998.204 72.3429 999.243 73.6559 1000.91 74.5398L1001.85 72.7722C1000.62 72.1201 1000.2 71.3851 1000.2 70.584H998.204ZM1000.91 74.5398C1002.45 75.3565 1004.41 76.063 1006.76 76.672L1007.26 74.736C1005 74.1503 1003.21 73.4915 1001.85 72.7722L1000.91 74.5398ZM1006.76 76.672C1009.04 77.2629 1011.45 77.9816 1013.99 78.8287L1014.62 76.9313C1012.05 76.0717 1009.59 75.3397 1007.26 74.736L1006.76 76.672ZM1013.99 78.8287C1016.48 79.6564 1018.83 80.7739 1021.07 82.1822L1022.14 80.4898C1019.77 78.9968 1017.26 77.8102 1014.62 76.9313L1013.99 78.8287ZM1021.07 82.1822C1023.23 83.5429 1025 85.3857 1026.37 87.7297L1028.1 86.7183C1026.57 84.1129 1024.58 82.0304 1022.14 80.4898L1021.07 82.1822ZM1026.38 87.743C1027.71 89.9249 1028.41 92.8831 1028.41 96.696H1030.41C1030.41 92.6582 1029.67 89.3018 1028.09 86.705L1026.38 87.743ZM1028.41 96.696C1028.41 102.46 1026.24 106.984 1021.89 110.371L1023.11 111.949C1027.98 108.168 1030.41 103.05 1030.41 96.696H1028.41ZM1021.88 110.376C1017.59 113.779 1011.69 115.536 1004.07 115.536V117.536C1011.98 117.536 1018.37 115.709 1023.12 111.944L1021.88 110.376Z" fill="#444444" mask="url(#path-1-outside-1_1_8315)"/>
</svg>
