<svg width="155" height="49" viewBox="0 0 155 49" fill="none" xmlns="http://www.w3.org/2000/svg">
<path d="M59.2756 38.2208C57.9929 38.2208 56.8336 37.9495 55.7976 37.4068C54.7616 36.8642 53.9352 36.1242 53.3186 35.1868C52.7019 34.2495 52.3689 33.2012 52.3196 32.0418V25.6778C52.3689 24.5185 52.7019 23.4825 53.3186 22.5698C53.9599 21.6325 54.7986 20.9048 55.8346 20.3868C56.8706 19.8688 58.0176 19.6098 59.2756 19.6098C60.9282 19.6098 62.4082 20.0168 63.7156 20.8308C65.0229 21.6448 66.0466 22.7548 66.7866 24.1608C67.5512 25.5668 67.9336 27.1578 67.9336 28.9338C67.9336 30.6852 67.5512 32.2638 66.7866 33.6698C66.0466 35.0758 65.0229 36.1858 63.7156 36.9998C62.4082 37.8138 60.9282 38.2208 59.2756 38.2208ZM58.4616 33.7438C59.3496 33.7438 60.1266 33.5465 60.7926 33.1518C61.4832 32.7325 62.0136 32.1652 62.3836 31.4498C62.7782 30.7098 62.9756 29.8588 62.9756 28.8968C62.9756 27.9595 62.7782 27.1332 62.3836 26.4178C62.0136 25.6778 61.4832 25.1105 60.7926 24.7158C60.1019 24.2965 59.3126 24.0868 58.4246 24.0868C57.5366 24.0868 56.7472 24.2965 56.0566 24.7158C55.3906 25.1105 54.8602 25.6778 54.4656 26.4178C54.0956 27.1332 53.9106 27.9595 53.9106 28.8968C53.9106 29.8588 54.0956 30.7098 54.4656 31.4498C54.8602 32.1652 55.4029 32.7325 56.0936 33.1518C56.7842 33.5465 57.5736 33.7438 58.4616 33.7438ZM49.3596 37.8508V11.0998H54.2066V24.3828L53.3926 28.6748L54.1696 33.0408V37.8508H49.3596ZM78.7335 38.2208C77.1549 38.2208 75.7489 37.8878 74.5155 37.2218C73.3069 36.5558 72.3572 35.6308 71.6665 34.4468C70.9759 33.2628 70.6305 31.8938 70.6305 30.3398V19.9798H75.5145V30.2288C75.5145 30.9688 75.6379 31.6102 75.8845 32.1528C76.1312 32.6708 76.5012 33.0655 76.9945 33.3368C77.4879 33.6082 78.0675 33.7438 78.7335 33.7438C79.7449 33.7438 80.5342 33.4355 81.1015 32.8188C81.6689 32.2022 81.9525 31.3388 81.9525 30.2288V19.9798H86.7995V30.3398C86.7995 31.9185 86.4542 33.2998 85.7635 34.4838C85.0975 35.6678 84.1479 36.5928 82.9145 37.2588C81.7059 37.9002 80.3122 38.2208 78.7335 38.2208ZM98.2074 38.2208C96.5547 38.2208 95.0747 37.8138 93.7674 36.9998C92.46 36.1858 91.424 35.0758 90.6594 33.6698C89.9194 32.2638 89.5494 30.6852 89.5494 28.9338C89.5494 27.1578 89.9194 25.5668 90.6594 24.1608C91.424 22.7548 92.4477 21.6448 93.7304 20.8308C95.0377 20.0168 96.53 19.6098 98.2074 19.6098C99.49 19.6098 100.637 19.8688 101.648 20.3868C102.684 20.9048 103.511 21.6325 104.127 22.5698C104.769 23.4825 105.114 24.5185 105.163 25.6778V32.0418C105.114 33.2012 104.781 34.2495 104.164 35.1868C103.548 36.1242 102.721 36.8642 101.685 37.4068C100.649 37.9495 99.49 38.2208 98.2074 38.2208ZM99.0214 33.7438C99.934 33.7438 100.723 33.5465 101.389 33.1518C102.08 32.7325 102.61 32.1652 102.98 31.4498C103.375 30.7098 103.572 29.8588 103.572 28.8968C103.572 27.9595 103.375 27.1332 102.98 26.4178C102.61 25.6778 102.08 25.1105 101.389 24.7158C100.723 24.2965 99.9464 24.0868 99.0584 24.0868C98.1457 24.0868 97.344 24.2965 96.6534 24.7158C95.9874 25.1352 95.457 25.7025 95.0624 26.4178C94.6924 27.1332 94.5074 27.9595 94.5074 28.8968C94.5074 29.8588 94.6924 30.7098 95.0624 31.4498C95.457 32.1652 95.9997 32.7325 96.6904 33.1518C97.381 33.5465 98.158 33.7438 99.0214 33.7438ZM108.123 37.8508H103.313V33.0408L104.09 28.6748L103.276 24.3828V11.0998H108.123V37.8508ZM118.553 38.2578C117.542 38.2578 116.543 38.1222 115.556 37.8508C114.594 37.5795 113.706 37.2095 112.892 36.7408C112.078 36.2475 111.375 35.6555 110.783 34.9648L113.669 32.0418C114.286 32.7325 115.001 33.2505 115.815 33.5958C116.629 33.9412 117.53 34.1138 118.516 34.1138C119.306 34.1138 119.898 34.0028 120.292 33.7808C120.712 33.5588 120.921 33.2258 120.921 32.7818C120.921 32.2885 120.699 31.9062 120.255 31.6348C119.836 31.3635 119.281 31.1415 118.59 30.9688C117.9 30.7715 117.172 30.5618 116.407 30.3398C115.667 30.0932 114.952 29.7848 114.261 29.4148C113.571 29.0202 113.003 28.4898 112.559 27.8238C112.14 27.1332 111.93 26.2452 111.93 25.1598C111.93 24.0252 112.202 23.0385 112.744 22.1998C113.312 21.3612 114.113 20.7075 115.149 20.2388C116.185 19.7702 117.406 19.5358 118.812 19.5358C120.292 19.5358 121.624 19.7948 122.808 20.3128C124.017 20.8308 125.016 21.6078 125.805 22.6438L122.882 25.5668C122.34 24.9008 121.723 24.4198 121.032 24.1238C120.366 23.8278 119.639 23.6798 118.849 23.6798C118.134 23.6798 117.579 23.7908 117.184 24.0128C116.814 24.2348 116.629 24.5432 116.629 24.9378C116.629 25.3818 116.839 25.7272 117.258 25.9738C117.702 26.2205 118.27 26.4425 118.96 26.6398C119.651 26.8125 120.366 27.0222 121.106 27.2688C121.871 27.4908 122.586 27.8115 123.252 28.2308C123.943 28.6502 124.498 29.2052 124.917 29.8958C125.361 30.5865 125.583 31.4745 125.583 32.5598C125.583 34.3112 124.954 35.7048 123.696 36.7408C122.438 37.7522 120.724 38.2578 118.553 38.2578ZM134.994 38.2578C133.982 38.2578 132.983 38.1222 131.997 37.8508C131.035 37.5795 130.147 37.2095 129.333 36.7408C128.519 36.2475 127.816 35.6555 127.224 34.9648L130.11 32.0418C130.726 32.7325 131.442 33.2505 132.256 33.5958C133.07 33.9412 133.97 34.1138 134.957 34.1138C135.746 34.1138 136.338 34.0028 136.733 33.7808C137.152 33.5588 137.362 33.2258 137.362 32.7818C137.362 32.2885 137.14 31.9062 136.696 31.6348C136.276 31.3635 135.721 31.1415 135.031 30.9688C134.34 30.7715 133.612 30.5618 132.848 30.3398C132.108 30.0932 131.392 29.7848 130.702 29.4148C130.011 29.0202 129.444 28.4898 129 27.8238C128.58 27.1332 128.371 26.2452 128.371 25.1598C128.371 24.0252 128.642 23.0385 129.185 22.1998C129.752 21.3612 130.554 20.7075 131.59 20.2388C132.626 19.7702 133.847 19.5358 135.253 19.5358C136.733 19.5358 138.065 19.7948 139.249 20.3128C140.457 20.8308 141.456 21.6078 142.246 22.6438L139.323 25.5668C138.78 24.9008 138.163 24.4198 137.473 24.1238C136.807 23.8278 136.079 23.6798 135.29 23.6798C134.574 23.6798 134.019 23.7908 133.625 24.0128C133.255 24.2348 133.07 24.5432 133.07 24.9378C133.07 25.3818 133.279 25.7272 133.699 25.9738C134.143 26.2205 134.71 26.4425 135.401 26.6398C136.091 26.8125 136.807 27.0222 137.547 27.2688C138.311 27.4908 139.027 27.8115 139.693 28.2308C140.383 28.6502 140.938 29.2052 141.358 29.8958C141.802 30.5865 142.024 31.4745 142.024 32.5598C142.024 34.3112 141.395 35.7048 140.137 36.7408C138.879 37.7522 137.164 38.2578 134.994 38.2578Z" fill="white"/>
<path opacity="0.7" d="M24.3803 24.7532L21.1351 24.797C17.2732 24.8492 14.1003 21.7608 14.0481 17.8989V17.8989C13.9959 14.0371 17.0843 10.8641 20.9462 10.8119L36.9886 10.5952" stroke="#FFAA4C" stroke-width="8.44412" stroke-linecap="round"/>
<path opacity="0.7" d="M35.5708 38.9026L19.5198 38.8594C15.6616 38.849 12.5423 35.7128 12.5527 31.8546V31.8546C12.563 28.0039 15.6873 24.8877 19.538 24.8874L24.5062 24.8869" stroke="#2FDBBC" stroke-width="8.44412" stroke-linecap="round"/>
<path opacity="0.7" d="M35.6737 38.7686L25.4257 26.3075C24.5015 25.1837 24.5608 23.547 25.5641 22.493L36.9155 10.5679" stroke="#A64CED" stroke-width="8.44412" stroke-linecap="round"/>
</svg>
